<svg width="190" height="191" xmlns="http://www.w3.org/2000/svg" xmlns:xlink="http://www.w3.org/1999/xlink" overflow="hidden"><defs><clipPath id="clip0"><rect x="1055" y="243" width="190" height="191"/></clipPath></defs><g clip-path="url(#clip0)" transform="translate(-1055 -243)"><path d="M1245.04 418.191C1245.04 426.561 1238.27 433.341 1229.88 433.341L1071.16 433.341C1062.8 433.341 1056 426.561 1056 418.191L1056 259.15C1056 250.78 1062.8 244 1071.16 244L1229.88 244C1238.23 244 1245.04 250.78 1245.04 259.15L1245.04 418.191Z" fill="#445D97" fill-rule="evenodd"/><path d="M1186.03 433.189 1186.03 360.132 1210.55 360.132 1214.21 331.642 1186.03 331.642 1186.03 313.453C1186.03 305.189 1188.33 299.604 1200.14 299.604L1215.23 299.604 1215.23 274.132C1212.62 273.792 1203.64 273 1193.23 273 1171.5 273 1156.6 286.283 1156.6 310.66L1156.6 331.642 1132 331.642 1132 360.132 1156.6 360.132 1156.6 433.189 1186.03 433.189Z" fill="#FFFFFF" fill-rule="evenodd"/></g></svg>