<svg width="190" height="190" xmlns="http://www.w3.org/2000/svg" xmlns:xlink="http://www.w3.org/1999/xlink" overflow="hidden"><defs><clipPath id="clip0"><rect x="648" y="243" width="190" height="190"/></clipPath><radialGradient cx="-0.125" cy="1.79393e+06" r="2.54171e+06" fx="0" fy="1.79393e+06" gradientUnits="userSpaceOnUse" spreadMethod="pad" id="fill1" gradientTransform="matrix(0.000104987 0 0 0.000104987 649 244)"><stop offset="0" stop-color="#FED378"/><stop offset="0.17" stop-color="#FED378"/><stop offset="0.42" stop-color="#DD5666"/><stop offset="0.61" stop-color="#CA3592"/><stop offset="1" stop-color="#8159A6"/></radialGradient></defs><g clip-path="url(#clip0)" transform="translate(-648 -243)"><path d="M838.038 417.269C838.038 425.595 831.272 432.339 822.88 432.339L664.158 432.339C655.804 432.339 649 425.595 649 417.269L649 259.07C649 250.744 655.804 244 664.158 244L822.88 244C831.234 244 838.038 250.744 838.038 259.07L838.038 417.269Z" fill="url(#fill1)" fill-rule="evenodd"/><path d="M770.27 267 715.768 267C691.586 267 672 286.724 672 311.076L672 365.962C672 390.314 691.586 410.038 715.768 410.038L770.27 410.038C794.451 410.038 814.038 390.314 814.038 365.962L814.038 311.076C814.038 286.724 794.451 267 770.27 267ZM800.403 360.69C800.403 380.376 784.583 396.307 765.034 396.307L720.966 396.307C701.417 396.307 685.597 380.376 685.597 360.69L685.597 316.348C685.597 296.7 701.417 280.731 720.966 280.731L765.034 280.731C784.545 280.731 800.403 296.7 800.403 316.348L800.403 360.69Z" fill="#FFFFFF" fill-rule="evenodd"/><path d="M744.614 301C723.818 301 707 317.856 707 338.614 707 359.371 723.856 376.227 744.614 376.227 765.409 376.227 782.227 359.371 782.227 338.614 782.265 317.818 765.409 301 744.614 301ZM744.614 361.265C732.114 361.265 721.962 351.114 721.962 338.614 721.962 326.114 732.076 315.962 744.614 315.962 757.114 315.962 767.265 326.076 767.265 338.614 767.265 351.114 757.114 361.265 744.614 361.265Z" fill="#FFFFFF" fill-rule="evenodd"/><path d="M789.19 300.614C789.19 305.896 784.896 310.228 779.576 310.228 774.294 310.228 770 305.934 770 300.614 770 295.332 774.294 291 779.576 291 784.896 291.038 789.19 295.332 789.19 300.614Z" fill="#FFFFFF" fill-rule="evenodd"/></g></svg>