<svg width="190" height="191" xmlns="http://www.w3.org/2000/svg" xmlns:xlink="http://www.w3.org/1999/xlink" overflow="hidden"><defs><clipPath id="clip0"><rect x="445" y="32" width="190" height="191"/></clipPath><linearGradient x1="595" y1="189" x2="473" y2="67" gradientUnits="userSpaceOnUse" spreadMethod="reflect" id="fill1"><stop offset="0" stop-color="#CBD7D3"/><stop offset="0.51" stop-color="#ABB1AD"/><stop offset="1" stop-color="#8C8E89"/></linearGradient></defs><g clip-path="url(#clip0)" transform="translate(-445 -32)"><path d="M634.038 206.269C634.038 214.595 627.272 221.339 618.88 221.339L460.158 221.339C451.804 221.339 445 214.595 445 206.269L445 48.0701C445 39.7439 451.804 33 460.158 33L618.88 33C627.234 33 634.038 39.7439 634.038 48.0701L634.038 206.269Z" fill="#00C300" fill-rule="evenodd"/><path d="M533.285 57C567.25 57 595.588 81.1661 602.142 113.292L602.273 114.594 610.066 114.594C617.209 114.594 623 120.403 623 127.568 623 134.733 617.209 140.542 610.066 140.542L602.259 140.542 602.142 141.708C595.588 173.834 567.25 198 533.285 198 494.468 198 463 166.436 463 127.5 463 88.5639 494.468 57 533.285 57Z" fill="#FFFFFF" fill-rule="evenodd"/><path d="M473 128C473 94.3106 500.311 67 534 67 567.689 67 595 94.3106 595 128 595 161.689 567.689 189 534 189 500.311 189 473 161.689 473 128Z" fill="url(#fill1)" fill-rule="evenodd"/><path d="M481 129C481 100.281 504.281 77 533 77 561.719 77 585 100.281 585 129 585 157.719 561.719 181 533 181 504.281 181 481 157.719 481 129Z" fill="#8F442B" fill-rule="evenodd"/><path d="M535.076 113.304C536.703 112.704 537.232 112.104 540.184 111.392 543.173 110.679 568.146 112.367 578.135 105.879 596.373 93.9919 602.351 70.7044 605.189 68.4169 601.14 63.5419 575.411 62.9794 558.346 72.7669 547.449 79.0294 533.865 91.5919 535.076 113.304" fill="#4FB133" fill-rule="evenodd"/></g></svg>