<svg width="190" height="191" xmlns="http://www.w3.org/2000/svg" xmlns:xlink="http://www.w3.org/1999/xlink" overflow="hidden"><defs><clipPath id="clip0"><rect x="648" y="32" width="190" height="191"/></clipPath></defs><g clip-path="url(#clip0)" transform="translate(-648 -32)"><path d="M838.038 207.191C838.038 215.561 831.272 222.341 822.88 222.341L664.158 222.341C655.804 222.341 649 215.561 649 207.191L649 48.1503C649 39.7798 655.804 33 664.158 33L822.88 33C831.234 33 838.038 39.7798 838.038 48.1503L838.038 207.191Z" fill="#00C300" fill-rule="evenodd"/><path d="M743.113 87.9055C738.522 87.9055 734.044 88.4701 729.792 89.5615L729.792 80.4157 729.792 79.3242C729.792 79.0984 729.754 78.8725 729.716 78.6091 728.888 67.3179 720.121 59 709.396 59 698.709 59 689.941 67.3179 689.075 78.6091 689.038 78.8349 689 117.112 689 117.112L689 142.028C689 142.216 689 142.367 689 142.555 689.263 172.213 713.385 196.151 743.113 196.151 772.992 196.151 797.226 171.912 797.226 142.028 797.226 112.144 773.029 87.9055 743.113 87.9055ZM743.113 187.833C717.825 187.833 697.316 167.32 697.316 142.028L697.316 79.7005C697.316 72.9635 702.735 67.506 709.396 67.506 716.056 67.506 721.475 72.9635 721.475 79.7005L721.438 141.501C721.438 153.47 731.109 163.745 743.113 163.745 755.079 163.745 764.788 154.034 764.788 142.066 764.788 130.097 755.079 120.387 743.113 120.387 738.07 120.387 733.479 122.118 729.792 124.978L729.792 115.682C733.781 113.649 738.334 112.52 743.113 112.52 759.445 112.52 772.691 125.769 772.691 142.103 772.691 158.438 759.445 171.686 743.113 171.686 726.781 171.686 713.535 158.438 713.535 142.103L713.535 79.2865C713.535 77.2541 711.691 75.3346 709.396 75.3346 707.1 75.3346 705.256 77.2541 705.256 79.2865L705.256 142.028C705.256 142.969 705.294 143.91 705.369 144.851 706.799 164.46 723.169 179.891 743.151 179.891 764.073 179.891 781.045 162.917 781.045 141.99 781.045 121.064 764.073 104.09 743.151 104.09 738.447 104.09 733.969 104.955 729.829 106.498L729.829 98.1429C734.044 96.8632 738.522 96.1857 743.151 96.1857 768.438 96.1857 788.947 116.698 788.947 141.99 788.947 167.32 768.438 187.833 743.113 187.833ZM729.792 142.028C729.792 134.651 735.775 128.704 743.113 128.704 750.489 128.704 756.434 134.689 756.434 142.028 756.434 149.405 750.451 155.352 743.113 155.352 735.775 155.352 729.792 149.405 729.792 142.028Z" fill="#FFFFFF" fill-rule="evenodd"/></g></svg>