<svg width="190" height="190" xmlns="http://www.w3.org/2000/svg" xmlns:xlink="http://www.w3.org/1999/xlink" overflow="hidden"><defs><clipPath id="clip0"><rect x="852" y="33" width="190" height="190"/></clipPath></defs><g clip-path="url(#clip0)" transform="translate(-852 -33)"><path d="M1041.04 207.191C1041.04 215.561 1034.27 222.341 1025.88 222.341L867.158 222.341C858.804 222.341 852 215.561 852 207.191L852 48.1503C852 39.7798 858.804 33 867.158 33L1025.88 33C1034.23 33 1041.04 39.7798 1041.04 48.1503L1041.04 207.191Z" fill="#00C300" fill-rule="evenodd"/><path d="M1015.08 119.186C1015.08 88.1827 984.326 63 946.538 63 908.75 63 878 88.2207 878 119.186 878 146.955 902.389 170.236 935.322 174.648 937.542 175.143 940.591 176.132 941.344 178.072 942.021 179.822 941.795 182.561 941.57 184.349 941.57 184.349 940.779 189.218 940.591 190.283 940.29 192.033 939.198 197.13 946.538 194.011 953.839 190.892 985.982 170.54 1000.36 153.802L1000.36 153.802C1010.3 142.771 1015.08 131.587 1015.08 119.186ZM919.702 137.635 906.077 137.635C904.083 137.635 902.502 135.999 902.502 133.983L902.502 106.48C902.502 104.464 904.12 102.866 906.077 102.866 908.072 102.866 909.653 104.502 909.653 106.48L909.653 130.369 919.665 130.369C921.659 130.369 923.24 132.005 923.24 133.983 923.315 135.999 921.697 137.635 919.702 137.635ZM933.816 133.983C933.816 135.999 932.198 137.635 930.241 137.635 928.246 137.635 926.665 135.999 926.665 133.983L926.665 106.48C926.665 104.464 928.284 102.866 930.241 102.866 932.235 102.866 933.816 104.502 933.816 106.48L933.816 133.983ZM966.561 133.983C966.561 135.543 965.582 136.95 964.114 137.445 963.738 137.559 963.362 137.635 962.985 137.635 961.856 137.635 960.802 137.103 960.125 136.19L946.161 116.979 946.161 133.983C946.161 135.999 944.543 137.635 942.586 137.635 940.591 137.635 939.01 135.999 939.01 133.983L939.01 106.48C939.01 104.92 939.989 103.513 941.457 103.018 941.833 102.904 942.209 102.828 942.586 102.828 943.715 102.828 944.769 103.361 945.446 104.274L959.41 123.484 959.41 106.442C959.41 104.426 961.028 102.828 962.985 102.828 964.98 102.828 966.561 104.464 966.561 106.442L966.561 133.983ZM988.616 116.599C990.611 116.599 992.192 118.235 992.192 120.213 992.192 122.229 990.573 123.827 988.616 123.827L978.605 123.827 978.605 130.331 988.616 130.331C990.611 130.331 992.192 131.967 992.192 133.945 992.192 135.961 990.573 137.597 988.616 137.597L974.991 137.597C972.997 137.597 971.416 135.961 971.416 133.945L971.416 120.213C971.416 120.213 971.416 120.213 971.416 120.213 971.416 120.213 971.416 120.213 971.416 120.213L971.416 106.48C971.416 106.48 971.416 106.48 971.416 106.48 971.416 104.464 973.034 102.866 974.991 102.866L988.616 102.866C990.611 102.866 992.192 104.502 992.192 106.48 992.192 108.496 990.573 110.094 988.616 110.094L978.605 110.094 978.605 116.599 988.616 116.599Z" fill="#FFFFFF" fill-rule="evenodd"/></g></svg>