<svg width="191" height="191" xmlns="http://www.w3.org/2000/svg" xmlns:xlink="http://www.w3.org/1999/xlink" overflow="hidden"><defs><clipPath id="clip0"><rect x="241" y="32" width="191" height="191"/></clipPath></defs><g clip-path="url(#clip0)" transform="translate(-241 -32)"><path d="M431.038 206.269C431.038 214.595 424.272 221.339 415.88 221.339L257.158 221.339C248.804 221.339 242 214.595 242 206.269L242 48.0701C242 39.7439 248.804 33 257.158 33L415.88 33C424.234 33 431.038 39.7439 431.038 48.0701L431.038 206.269Z" fill="#00C300" fill-rule="evenodd"/><path d="M417.076 134.611C417.076 148.8 405.607 160.303 391.489 160.303L280.587 160.303C266.431 160.303 255 148.8 255 134.611L255 73.6919C255 59.5027 266.469 48 280.587 48L391.451 48C405.569 48 417.038 59.5027 417.038 73.6919L417.038 134.611Z" fill="#FFFFFF" fill-rule="evenodd"/><path d="M356.114 155.443 339.543 154.418 339.543 154 336.076 154.228 332.571 154 332.571 154.456 316 155.481 331.848 181.19C331.848 181.19 332 181.456 332.267 181.797 333.029 183.089 334.438 184 336.076 184 337.714 184 339.086 183.127 339.886 181.835 340.229 181.456 340.343 181.19 340.343 181.19L356.114 155.443Z" fill="#FFFFFF" fill-rule="evenodd"/><path d="M291.259 92.017C291.259 92.017 286.854 92.017 282.864 95.9714L282.864 80 273 80 273 121.925 282.976 121.925 282.976 118.662C282.976 118.662 285.311 123 291.259 123 291.259 123 305.151 122.462 305.151 107.336 305.151 107.336 304.661 92.017 291.259 92.017ZM289.075 114.131C285.574 114.131 282.751 111.252 282.751 107.681 282.751 104.111 285.612 101.231 289.075 101.231 292.576 101.231 295.4 104.111 295.4 107.681 295.438 111.213 292.576 114.131 289.075 114.131Z" fill="#F37528" fill-rule="evenodd"/><path d="M308 80 308 89.345C308 89.345 312.541 89.1604 312.541 97.3604L312.541 121.222 322.114 121.222 322.114 95.1441C322.076 95.1441 322.492 80 308 80Z" fill="#F37528" fill-rule="evenodd"/><path d="M345.928 92C345.928 92 330.002 92 330.002 107.655 330.002 107.655 329.487 123.116 345.928 123.116 345.928 123.116 362.223 123.077 362.223 107.655 362.223 107.655 362.737 92 345.928 92ZM345.928 114.204C342.508 114.204 339.749 111.298 339.749 107.694 339.749 104.09 342.508 101.184 345.928 101.184 349.349 101.184 352.108 104.09 352.108 107.694 352.108 111.259 349.349 114.204 345.928 114.204Z" fill="#F37528" fill-rule="evenodd"/><path d="M389.811 93.0416 389.811 95.8493C389.811 95.8493 387.043 92.0031 381.692 92.0031 381.692 92.0031 368 91.3877 368 107.465 368 107.465 367.852 122.426 381.323 122.426 381.323 122.426 386.822 122.657 389.811 118.58L389.811 120.926C389.811 120.926 390.475 128.311 383.648 128.311L381.323 128.311 381.323 137.234 385.087 137.234C385.087 137.234 399.222 137.388 399.222 121.465L399.222 93.0031 389.811 93.0031ZM384.017 114.08C380.585 114.08 377.817 111.195 377.817 107.618 377.817 104.042 380.585 101.157 384.017 101.157 387.449 101.157 390.217 104.042 390.217 107.618 390.254 111.157 387.449 114.08 384.017 114.08Z" fill="#F37528" fill-rule="evenodd"/></g></svg>