<svg width="250" height="200" viewBox="0 0 250 200" fill="none" xmlns="http://www.w3.org/2000/svg">
<path d="M250 37.5V112.5C250 117.388 247.15 121.812 242.725 123.85C241.05 124.625 239.275 125 237.5 125C234.575 125 231.675 123.975 229.375 121.987L200 96.8125V118.75C200 136.013 186.013 150 168.75 150H162.5V187.5C162.5 192.05 160.025 196.25 156.025 198.45C154.15 199.487 152.075 200 150 200C147.675 200 145.363 199.35 143.325 198.075L83.95 160.575C80.2625 158.238 78.2 154.213 78.2 150H75C65.775 150 57.8 144.938 53.4625 137.5H0V112.5H12.5C37.5 112.5 47.075 109.762 62.5 62.5C67.85 46.1 74.5375 5.375 137.5 0.4875V0H168.75C186.013 0 200 13.9875 200 31.25V53.1875L229.375 28.0125C233.075 24.8375 238.288 24.1 242.725 26.15C247.15 28.1875 250 32.6125 250 37.5Z" fill="#EF6C00"/>
<path opacity="0.4" d="M174.999 0.674999V149.3C172.974 149.713 170.899 150 168.749 150H162.499V168.75H96.8992L83.9492 160.575C80.2617 158.238 78.1992 154.213 78.1992 150H118.749V3.3875C124.374 2.05 130.562 1.0375 137.499 0.5V150H156.249V0H168.749C170.899 0 172.974 0.262499 174.999 0.674999ZM218.749 37.1125L199.999 53.1875V96.8125L218.749 112.888V37.1125Z" fill="white"/>
<path opacity="0.3" d="M90.625 93.75C90.625 98.925 86.425 103.125 81.25 103.125C76.075 103.125 71.875 98.925 71.875 93.75C71.875 88.575 76.075 84.375 81.25 84.375C86.425 84.375 90.625 88.575 90.625 93.75ZM237.5 125C239.275 125 241.05 124.625 242.725 123.85C247.15 121.813 250 117.388 250 112.5V37.5C250 32.6125 247.15 28.1875 242.725 26.1375C238.287 24.0875 233.075 24.825 229.375 28L218.75 37.1125V112.888L229.375 121.988C231.675 123.975 234.575 125 237.5 125Z" fill="black"/>
</svg>
