<svg width="373" height="200" viewBox="0 0 373 200" fill="none" xmlns="http://www.w3.org/2000/svg">
<path d="M372.727 90.9091C372.727 200 245.455 200 81.8182 200C81.8182 200 81.7636 163.545 118.182 163.636C241.545 163.964 253.691 131.091 254.545 121.109C254.273 119.509 254.036 117.855 253.818 116.2L154.545 92.3636V127.273H100L118.182 109.091V83.6364L72.7273 72.7273H27.2727L9.09091 54.5455L75.2 41.3273L0 18.1818V0H100C124.127 0 145.345 5.34546 158.564 18.1818H300C340.164 18.1818 372.727 50.7455 372.727 90.9091Z" fill="#2E7D32"/>
<path opacity="0.3" d="M300.001 54.5454V81.8181C275.783 81.8181 253.837 101.709 253.837 116.2L228.619 110.145C234.856 79.0181 264.928 54.5454 300.001 54.5454Z" fill="black"/>
<path opacity="0.4" d="M118.183 83.6363L72.7282 72.7272H27.2736L9.0918 54.5454H81.8191L118.183 62.0545V83.6363ZM154.546 69.5636V92.3636L228.601 110.145C230.255 101.945 233.637 94.2545 238.237 87.309C238.274 87.2 238.401 86.909 238.401 86.909L154.546 69.5636ZM372.728 90.909C372.728 92.3272 372.474 93.5272 372.419 94.9091C372.455 94.7636 372.51 94.5818 372.565 94.4363C372.601 93.2545 372.728 92.1272 372.728 90.909ZM371.51 106.8C372.001 103 372.292 99.0181 372.419 94.9091C365.346 120.982 329.346 181.818 172.728 181.818C151.128 181.818 86.3282 181.818 86.3282 181.818C81.8191 190.909 81.8191 200 81.8191 200C234.165 200 354.855 199.891 370.801 111.855C371.11 110.218 371.274 108.491 371.51 106.8Z" fill="white"/>
</svg>
