<svg width="237" height="200" viewBox="0 0 237 200" fill="none" xmlns="http://www.w3.org/2000/svg">
<path d="M105.919 137.435C103.111 138.706 100.173 139.729 97.0694 140.353L118.618 200H93.4444L70.6164 136.812C59.2794 131.259 50.7974 120.847 48.2149 108.2L35.5392 58.8235H0V23.5294H12.4387C15.1871 10.1059 27.1283 0 41.4624 0C51.0106 0 59.4097 4.56471 64.8235 11.5294L95.1859 59.4588C96.7259 59.6941 190.763 83.2588 190.763 83.2588C190.763 83.2588 195.17 84.7176 197.207 85.7765L218.803 64.3529L231.372 76.8353L209.788 98.2706C211.92 102.318 213.235 106.871 213.235 111.765V156.494L236.893 200H209.966L165.281 117.835L105.919 137.435Z" fill="#6D4C41"/>
<path opacity="0.3" d="M35.5392 58.8235H0V23.5294H12.4387L35.5392 58.8235Z" fill="black"/>
<path opacity="0.4" d="M70.6163 136.812C59.2793 131.259 50.7972 120.847 48.2147 108.2L35.5391 58.8234C35.5391 58.8234 64.8234 58.8234 64.8234 11.5293L65.0366 11.3999L95.1857 59.4587C96.7376 59.694 70.6163 136.812 70.6163 136.812ZM76.4447 152.941L93.4443 200H118.618L101.618 152.941H76.4447ZM197.171 176.471L209.966 200H236.892L224.098 176.471H197.171Z" fill="white"/>
</svg>
