<svg width="127" height="35" viewBox="0 0 127 35" fill="none" xmlns="http://www.w3.org/2000/svg">
<path d="M44.0699 27.7932C44.2941 28.1296 44.6866 28.5594 45.4715 28.6575C46.4899 28.8164 47.186 28.4006 47.7233 27.9521C48.7465 27.0971 49.8163 25.5787 50.704 23.2194C50.2461 22.2103 45.6864 11.9275 45.0416 10.5212C44.425 9.13369 43.869 7.62 42.4814 7.62V7.46582H49.6061V7.62C48.5549 7.62 48.4661 8.11521 49.1109 9.68497C49.6948 11.1333 52.213 17.0432 52.5821 17.9682C53.9089 14.3288 54.7125 12.1517 54.8666 11.7546C55.4506 10.1522 55.4646 7.62 54.0163 7.62V7.46582H58.6415V7.62C57.254 7.89564 57.1278 9.26918 56.385 11.1519C55.9552 12.3246 52.6195 21.7011 52.1569 22.9064C50.6432 27.0084 48.312 29.9983 46.0975 29.9983C45.2425 30.017 44.6632 29.8816 44.0652 29.3677" fill="black"/>
<path d="M111.504 27.7932C111.728 28.1296 112.121 28.5594 112.906 28.6575C113.924 28.8164 114.62 28.4006 115.157 27.9521C116.181 27.0971 117.25 25.5787 118.138 23.2194C117.68 22.2103 113.12 11.9275 112.476 10.5212C111.859 9.13369 111.303 7.62 109.916 7.62V7.46582H117.04V7.62C115.989 7.62 115.9 8.11521 116.545 9.68497C117.129 11.1333 119.647 17.0432 120.016 17.9682C121.343 14.3288 122.147 12.1517 122.301 11.7546C122.885 10.1522 122.899 7.62 121.45 7.62V7.46582H126.076V7.62C124.688 7.89564 124.562 9.26918 123.819 11.1519C123.389 12.3246 120.054 21.7011 119.591 22.9064C118.077 27.0084 115.746 29.9983 113.532 29.9983C112.677 30.017 112.097 29.8816 111.499 29.3677" fill="black"/>
<path d="M41.9207 19.3556V21.0282C40.748 21.9812 39.51 22.7755 37.0946 22.9296C32.5115 23.2193 27.9097 21.0469 27.5546 15.7583C27.1762 10.4697 31.0959 7.52642 35.679 7.12463C37.0292 6.99382 38.6877 7.32552 39.7296 7.58715C40.748 7.85345 41.5422 7.96556 41.5422 6.45654H41.6544V12.0348H41.5422C41.5422 10.6612 39.6174 7.82074 35.6977 8.12909C32.3106 8.41875 31.1379 12.0348 31.4042 15.5527C31.6939 19.094 33.5954 21.7804 37.0899 21.6916C39.1689 21.6495 40.7434 20.4769 41.916 19.3463L41.9207 19.3556Z" fill="black"/>
<path d="M9.46992 1.1121V1.26626C7.71329 1.26626 7.55912 2.40621 7.52642 4.65806V21.4395C7.52642 26.7468 3.27032 28.4426 0 28.751V28.5641C1.94351 27.854 2.74707 26.2188 2.74707 22.5467V4.65339C2.74707 2.40153 2.5602 1.26159 0.803566 1.26159V1.10742H9.4746L9.46992 1.1121Z" fill="black"/>
<path d="M25.3216 19.1877C25.3216 21.6871 25.5972 22.5514 27.2651 22.5514V22.7056H20.1685V22.5514C20.3554 22.458 20.5095 21.874 20.5983 20.7014C19.6406 22.1496 18.4679 23.0139 16.0339 23.0139C12.7635 23.0139 10.5724 21.2853 10.5724 17.3049V10.9792C10.5724 8.45166 10.2968 7.61539 8.62891 7.61539V7.46122H15.7535V7.61539C15.4452 7.76956 15.2303 9.12908 15.2303 12.2406V17.9169C15.2303 20.0146 15.0761 21.5797 17.2953 21.5797C18.5286 21.5797 19.8882 20.6873 20.5983 19.2671C20.659 18.6177 20.659 18.9073 20.659 17.9169V10.9745C20.659 8.44698 20.3834 7.61071 18.7155 7.61071V7.45654H25.8402V7.61071C25.5318 7.76488 25.3169 9.12441 25.3169 12.2359V19.1783L25.3216 19.1877Z" fill="black"/>
<path d="M90.887 19.1874C90.887 21.6868 91.1626 22.5511 92.8305 22.5511V22.7053H85.7339V22.5511C85.9208 22.4577 86.075 21.8737 86.1637 20.7011C85.206 22.1494 84.0333 23.0137 81.5993 23.0137C78.329 23.0137 76.1378 21.2851 76.1378 17.3046V10.9789C76.1378 8.45138 75.8622 7.6151 74.1943 7.6151V7.46094H81.319V7.6151C81.0106 7.76928 80.7957 9.12879 80.7957 12.2403V17.9166C80.7957 20.0143 80.6415 21.9064 82.8607 21.9064C84.0941 21.9064 85.4536 21.0141 86.1637 19.5938C86.2245 18.9444 86.2245 18.9071 86.2245 17.9213V10.9789C86.2245 8.45138 85.9488 7.6151 84.281 7.6151V7.46094H91.4056V7.6151C91.0972 7.76928 90.8823 9.12879 90.8823 12.2403V19.1827L90.887 19.1874Z" fill="black"/>
<path d="M75.0354 1.1121V1.26626C73.2787 1.26626 73.1246 2.40621 73.0918 4.65806V21.4395C73.0918 26.7468 68.8358 28.4426 65.5654 28.751V28.5641C67.5089 27.854 68.3125 26.2188 68.3125 22.5467V4.65339C68.3125 2.40153 68.1256 1.26159 66.369 1.26159V1.10742H75.04L75.0354 1.1121Z" fill="black"/>
<path d="M108.855 19.1874C108.855 21.6869 109.131 22.5512 110.799 22.5512V22.7054H103.674V22.5512C103.889 22.4578 104.043 21.8131 104.137 20.4208C103.272 22.2429 101.791 23.0137 100.035 23.0137C95.7459 23.0137 92.6905 20.1732 92.91 15.0855C93.125 10.1473 96.2411 8.35801 99.5114 7.52641C101.361 7.06389 102.721 7.12463 104.202 7.21806V3.51793C104.202 1.01847 103.926 0.154166 102.258 0.154166V0H109.355V0.154166C109.079 0.308339 108.86 1.66786 108.86 4.77934V19.1874H108.855ZM104.197 8.26458C102.903 8.14311 101.114 8.17114 100.25 8.54022C98.3061 9.34378 97.6287 11.1985 97.5679 15.1463C97.4745 19.3416 98.6798 21.5841 100.806 21.5841C102.38 21.5841 103.52 20.4442 104.169 18.9912C104.202 18.3745 104.202 17.8092 104.202 16.9449V8.2599L104.197 8.26458Z" fill="black"/>
</svg>
