<svg width="173" height="200" viewBox="0 0 173 200" fill="none" xmlns="http://www.w3.org/2000/svg">
<path d="M172.8 40V60C162.211 60 153.6 68.97 153.6 80V160C153.6 182.06 136.378 200 115.2 200H28.8V80V70H9.6L0 50L16.0704 27.96L16.0896 28.01C19.4304 24.27 23.808 21.56 28.8 20.5V0C28.8 0 67.2 10 67.2 40C67.2 46.8 67.2864 67.47 67.344 80H76.8C98.0064 80 115.2 97.91 115.2 120V180C125.789 180 134.4 171.03 134.4 160V80C134.4 57.94 151.622 40 172.8 40Z" fill="#BDBDBD"/>
<path opacity="0.3" d="M134.4 80V160C134.4 171 125.76 180 115.2 180V200C115.382 200 115.776 200 116.16 199.9C117.696 199.8 120.682 199.3 124.714 198.7C141.312 194.3 153.6 178.7 153.6 160V80C153.6 69 162.24 60 172.8 60V40C151.584 40 134.4 57.9 134.4 80ZM48 200H67.2C67.2 189 75.84 180 86.4 180V160C65.184 160 48 177.9 48 200Z" fill="black"/>
</svg>
