<svg width="22" height="22" viewBox="0 0 22 22" fill="none" xmlns="http://www.w3.org/2000/svg">
<path d="M20.79 15.1311C19.2867 15.1311 17.8322 14.8867 16.4756 14.4467C16.0478 14.3 15.5711 14.41 15.2411 14.74L13.3222 17.1478C9.86333 15.4978 6.62444 12.3811 4.90111 8.8L7.28444 6.77111C7.61444 6.42889 7.71222 5.95222 7.57778 5.52444C7.12556 4.16778 6.89333 2.71333 6.89333 1.21C6.89333 0.55 6.34333 0 5.68333 0H1.45444C0.794445 0 0 0.293333 0 1.21C0 12.5644 9.44778 22 20.79 22C21.6578 22 22 21.23 22 20.5578V16.3411C22 15.6811 21.45 15.1311 20.79 15.1311Z" fill="white"/>
</svg>
