<?xml version="1.0" encoding="UTF-8"?> <svg xmlns="http://www.w3.org/2000/svg" width="45" height="45" viewBox="0 0 45 45" fill="none"><circle cx="22.5" cy="22.5" r="22.5" fill="white"></circle><mask id="path-2-inside-1_371_75254" fill="white"><path fill-rule="evenodd" clip-rule="evenodd" d="M23 31C30.1797 31 36 26.7467 36 21.5C36 16.2533 30.1797 12 23 12C15.8203 12 10 16.2533 10 21.5C10 25.0911 12.7267 28.2169 16.7497 29.8319L15.4649 31.5726C15.3504 31.7276 15.4999 31.9389 15.6842 31.8826L19.6301 30.6777C20.7048 30.8879 21.8345 31 23 31Z"></path></mask><path fill-rule="evenodd" clip-rule="evenodd" d="M23 31C30.1797 31 36 26.7467 36 21.5C36 16.2533 30.1797 12 23 12C15.8203 12 10 16.2533 10 21.5C10 25.0911 12.7267 28.2169 16.7497 29.8319L15.4649 31.5726C15.3504 31.7276 15.4999 31.9389 15.6842 31.8826L19.6301 30.6777C20.7048 30.8879 21.8345 31 23 31Z" fill="#F5E2E2"></path><path d="M16.7497 29.8319L17.5542 30.4258L18.3221 29.3856L17.1222 28.9039L16.7497 29.8319ZM15.4649 31.5726L14.6603 30.9787H14.6603L15.4649 31.5726ZM15.6842 31.8826L15.3921 30.9262L15.3921 30.9262L15.6842 31.8826ZM19.6301 30.6777L19.822 29.6963L19.5769 29.6484L19.338 29.7213L19.6301 30.6777ZM35 21.5C35 23.7267 33.767 25.8283 31.6024 27.4101C29.4385 28.9914 26.4004 30 23 30V32C26.7793 32 30.2412 30.882 32.7824 29.0249C35.3229 27.1684 37 24.52 37 21.5H35ZM23 13C26.4004 13 29.4385 14.0086 31.6024 15.5899C33.767 17.1717 35 19.2733 35 21.5H37C37 18.48 35.3229 15.8316 32.7824 13.9751C30.2412 12.118 26.7793 11 23 11V13ZM11 21.5C11 19.2733 12.233 17.1717 14.3976 15.5899C16.5615 14.0086 19.5996 13 23 13V11C19.2207 11 15.7588 12.118 13.2176 13.9751C10.6771 15.8316 9 18.48 9 21.5H11ZM17.1222 28.9039C13.3241 27.3791 11 24.5387 11 21.5H9C9 25.6436 12.1293 29.0546 16.3771 30.76L17.1222 28.9039ZM16.2694 32.1664L17.5542 30.4258L15.9451 29.2381L14.6603 30.9787L16.2694 32.1664ZM15.3921 30.9262C16.1294 30.7011 16.7272 31.5463 16.2694 32.1664L14.6603 30.9787C13.9737 31.9089 14.8704 33.1767 15.9762 32.839L15.3921 30.9262ZM19.338 29.7213L15.3921 30.9262L15.9762 32.839L19.9221 31.6341L19.338 29.7213ZM23 30C21.8985 30 20.8331 29.8941 19.822 29.6963L19.4381 31.6591C20.5766 31.8818 21.7705 32 23 32V30Z" fill="#333333" mask="url(#path-2-inside-1_371_75254)"></path><path d="M22.0411 23.8189C21.9286 23.8189 21.8723 23.7649 21.8723 23.6568V23.0825C21.8723 22.7683 21.9593 22.4836 22.1332 22.2283C22.3173 21.973 22.5424 21.7374 22.8083 21.5214C23.0743 21.2955 23.3352 21.0697 23.5909 20.8439C23.8569 20.6082 24.0768 20.3579 24.2507 20.0928C24.4349 19.8277 24.5269 19.5282 24.5269 19.1944C24.5269 18.8508 24.3991 18.5955 24.1433 18.4286C23.8978 18.2617 23.5295 18.1782 23.0385 18.1782C22.435 18.1782 22.0155 18.3108 21.7803 18.5758C21.545 18.8409 21.4325 19.2189 21.4427 19.7099C21.4427 19.8277 21.3915 19.8866 21.2892 19.8866H20.1691C20.0975 19.8866 20.0514 19.867 20.031 19.8277C20.0105 19.7884 20.0003 19.7442 20.0003 19.6951C19.9901 18.782 20.2407 18.1046 20.7522 17.6627C21.2739 17.2209 22.0513 17 23.0845 17C24.0666 17 24.798 17.1816 25.2788 17.5449C25.7596 17.8984 26 18.4089 26 19.0766C26 19.5086 25.9079 19.8964 25.7238 20.2401C25.5397 20.5837 25.3146 20.8881 25.0486 21.1532C24.7929 21.4183 24.5269 21.6637 24.2507 21.8895C23.9848 22.1154 23.7597 22.3265 23.5756 22.5228C23.4017 22.7192 23.3096 22.9156 23.2994 23.1119L23.284 23.6568C23.284 23.7649 23.2329 23.8189 23.1306 23.8189H22.0411ZM22.6396 27C22.3122 27 22.0718 26.9215 21.9184 26.7644C21.7751 26.6073 21.7035 26.3962 21.7035 26.1311V25.9543C21.7035 25.6794 21.7751 25.4634 21.9184 25.3063C22.0718 25.1492 22.3122 25.0707 22.6396 25.0707C22.9669 25.0707 23.2022 25.1492 23.3454 25.3063C23.4988 25.4634 23.5756 25.6794 23.5756 25.9543V26.1311C23.5756 26.3962 23.4988 26.6073 23.3454 26.7644C23.2022 26.9215 22.9669 27 22.6396 27Z" fill="#333333"></path></svg> 