<svg width="117" height="43" viewBox="0 0 117 43" fill="none" xmlns="http://www.w3.org/2000/svg">
<rect x="1" y="1" width="115" height="41" rx="20.5" fill="#171C8F"/>
<path d="M27.7626 21.696L33.7146 13.464H30.2106L25.2426 20.448V13.464H22.3386V30H25.2426V23.184L31.0506 30H34.8666L27.7626 21.696ZM43.0888 30.288C47.7928 30.288 51.4888 26.424 51.4888 21.744C51.4888 17.064 47.7928 13.176 43.0888 13.176C38.3608 13.176 34.6888 17.064 34.6888 21.744C34.6888 26.424 38.3608 30.288 43.0888 30.288ZM43.0648 27.552C39.9208 27.552 37.6408 24.912 37.6408 21.744C37.6408 18.576 39.9208 15.912 43.0648 15.912C46.2328 15.912 48.5608 18.576 48.5608 21.744C48.5608 24.912 46.2328 27.552 43.0648 27.552ZM66.6109 30L62.3149 23.88C64.8349 23.544 66.3949 21.144 66.3949 18.768C66.3949 16.128 64.8349 13.464 61.1389 13.464H54.6589V30H57.5869V23.976H59.0749L63.1549 30H66.6109ZM60.9229 16.08C62.5309 16.08 63.4669 17.304 63.4669 18.816C63.4669 20.328 62.6029 21.504 60.5389 21.504H57.5869V16.08H60.9229ZM72.6566 23.208H78.9926V20.544H72.6566V16.08H79.9046V13.464H69.7526V30H80.1446V27.384H72.6566V23.208ZM96.8556 30L90.6636 13.464H87.4956L81.2796 30H84.3996L85.8156 25.944H92.3196L93.7596 30H96.8556ZM89.0796 16.68L91.4316 23.4H86.7036L89.0796 16.68Z" fill="#EF426F"/>
<rect x="1" y="1" width="115" height="41" rx="20.5" stroke="#FCEEF1" stroke-width="2"/>
</svg>
