<svg width="79" height="30" viewBox="0 0 79 30" fill="none" xmlns="http://www.w3.org/2000/svg">
<rect x="1.5833" y="1.24639" width="76.0643" height="27.1186" rx="13.5593" fill="#171C8F"/>
<path d="M19.2846 14.8132L23.2214 9.36828H20.9038L17.6178 13.9877V9.36828H15.697V20.3057H17.6178V15.7974L21.4594 20.3057H23.9834L19.2846 14.8132ZM29.4218 20.4962C32.5332 20.4962 34.9778 17.9404 34.9778 14.8449C34.9778 11.7494 32.5332 9.17779 29.4218 9.17779C26.2946 9.17779 23.8658 11.7494 23.8658 14.8449C23.8658 17.9404 26.2946 20.4962 29.4218 20.4962ZM29.406 18.6865C27.3264 18.6865 25.8184 16.9403 25.8184 14.8449C25.8184 12.7495 27.3264 10.9875 29.406 10.9875C31.5014 10.9875 33.0412 12.7495 33.0412 14.8449C33.0412 16.9403 31.5014 18.6865 29.406 18.6865ZM44.98 20.3057L42.1385 16.2577C43.8053 16.0355 44.8371 14.4481 44.8371 12.8765C44.8371 11.1303 43.8053 9.36828 41.3607 9.36828H37.0746V20.3057H39.0113V16.3212H39.9955L42.6941 20.3057H44.98ZM41.2178 11.0986C42.2814 11.0986 42.9005 11.9082 42.9005 12.9082C42.9005 13.9083 42.329 14.6862 40.9638 14.6862H39.0113V11.0986H41.2178ZM48.9788 15.8132H53.1696V14.0512H48.9788V11.0986H53.7729V9.36828H47.058V20.3057H53.9316V18.5754H48.9788V15.8132ZM64.9847 20.3057L60.8891 9.36828H58.7937L54.6823 20.3057H56.7459L57.6825 17.6229H61.9845L62.9369 20.3057H64.9847ZM59.8414 11.4954L61.3971 15.9402H58.2699L59.8414 11.4954Z" fill="#EF426F"/>
<rect x="1.5833" y="1.24639" width="76.0643" height="27.1186" rx="13.5593" stroke="#FCEEF1" stroke-width="1.32286"/>
</svg>
