<svg width="151" height="43" viewBox="0 0 151 43" fill="none" xmlns="http://www.w3.org/2000/svg">
<rect x="1" y="1" width="149" height="41" rx="20.5" fill="#171C8F"/>
<path d="M26.3056 30V13.464H23.3776V30H26.3056ZM36.1466 18.504C34.9946 18.504 33.2426 19.152 32.6666 20.568V18.792H29.8826V30H32.6666V24.048C32.6666 21.888 34.2506 21.144 35.5226 21.144C36.7706 21.144 37.8506 22.104 37.8506 23.904V30H40.6346V23.712C40.6346 20.448 39.0266 18.504 36.1466 18.504ZM52.3724 20.256C51.6044 19.08 50.0444 18.504 48.6284 18.504C45.6764 18.504 43.1324 20.784 43.1324 24.384C43.1324 27.96 45.7004 30.288 48.6524 30.288C50.0204 30.288 51.6044 29.688 52.3724 28.512V30H55.1564V12.696H52.3724V20.256ZM49.0844 27.696C47.3564 27.696 45.9404 26.232 45.9404 24.36C45.9404 22.488 47.3564 21.096 49.0844 21.096C50.6924 21.096 52.3244 22.392 52.3244 24.36C52.3244 26.328 50.7884 27.696 49.0844 27.696ZM63.7323 30.288C66.9243 30.288 69.7083 27.936 69.7083 24.384C69.7083 20.832 66.9243 18.504 63.7323 18.504C60.5403 18.504 57.7803 20.832 57.7803 24.384C57.7803 27.936 60.5403 30.288 63.7323 30.288ZM63.7323 27.696C62.0043 27.696 60.5883 26.352 60.5883 24.384C60.5883 22.464 62.0043 21.096 63.7323 21.096C65.4603 21.096 66.9003 22.464 66.9003 24.384C66.9003 26.352 65.4603 27.696 63.7323 27.696ZM78.5919 18.504C77.4399 18.504 75.6879 19.152 75.1119 20.568V18.792H72.3279V30H75.1119V24.048C75.1119 21.888 76.6959 21.144 77.9679 21.144C79.2159 21.144 80.2959 22.104 80.2959 23.904V30H83.0799V23.712C83.0799 20.448 81.4719 18.504 78.5919 18.504ZM97.1698 24.288C97.1698 20.784 94.6498 18.504 91.4578 18.504C88.2418 18.504 85.5778 20.808 85.5778 24.384C85.5778 27.888 88.1217 30.288 91.4578 30.288C93.4978 30.288 95.4898 29.376 96.5218 27.744L94.6498 26.328C94.0018 27.24 92.8258 27.768 91.6258 27.768C89.9458 27.768 88.7458 26.928 88.4338 25.368H97.1218C97.1458 24.96 97.1698 24.6 97.1698 24.288ZM88.4338 23.424C88.7698 21.72 89.9938 20.976 91.4818 20.976C93.0418 20.976 94.2418 21.888 94.4098 23.424H88.4338ZM103.47 30.288C105.75 30.288 108.03 29.04 108.03 26.76C108.03 25.728 107.574 24.144 105.054 23.496L103.254 23.016C102.606 22.872 102.054 22.536 102.054 21.96C102.054 21.264 102.654 20.76 103.518 20.76C104.31 20.76 105.006 21.24 105.006 22.008H107.67C107.694 19.512 105.438 18.504 103.446 18.504C100.998 18.504 99.2703 20.088 99.2703 21.84C99.2703 23.256 99.9183 24.6 102.438 25.272L103.926 25.656C104.766 25.848 105.246 26.136 105.246 26.76C105.246 27.48 104.526 28.032 103.422 28.032C102.246 28.032 101.574 27.312 101.574 26.544H98.9583C99.0063 28.944 101.238 30.288 103.47 30.288ZM112.017 16.536C113.025 16.536 113.817 15.792 113.817 14.832C113.817 13.848 113.025 13.128 112.017 13.128C111.033 13.128 110.193 13.848 110.193 14.832C110.193 15.792 111.033 16.536 112.017 16.536ZM113.409 30V18.792H110.625V30H113.409ZM125.287 20.352C124.543 19.176 123.055 18.504 121.519 18.504C118.351 18.504 116.047 21 116.047 24.384C116.047 27.864 118.447 30.288 121.447 30.288C123.055 30.288 124.543 29.472 125.287 28.248V30H128.071V18.792H125.287V20.352ZM122.023 27.696C120.199 27.696 118.831 26.184 118.831 24.384C118.831 22.584 120.199 21.096 121.999 21.096C123.655 21.096 125.239 22.464 125.239 24.384C125.239 26.256 123.751 27.696 122.023 27.696Z" fill="#F5E2E2"/>
<rect x="1" y="1" width="149" height="41" rx="20.5" stroke="#FCEEF1" stroke-width="2"/>
</svg>
