<svg width="69" height="30" viewBox="0 0 69 30" fill="none" xmlns="http://www.w3.org/2000/svg">
<rect x="0.661429" y="1.41338" width="67.4657" height="27.1186" rx="13.5593" fill="#171C8F"/>
<path d="M14.5216 23.1045C17.0774 23.1045 18.014 21.4218 18.014 19.4693V8.43664H16.0773V19.4693C16.0773 20.4376 15.6487 21.2472 14.5216 21.2472C14.4105 21.2472 13.6485 21.2154 13.2993 21.1043L13.1088 22.8664C13.6009 23.0092 14.22 23.1045 14.5216 23.1045ZM25.982 12.9926C25.4899 12.2147 24.5057 11.7702 23.4897 11.7702C21.3943 11.7702 19.8704 13.4212 19.8704 15.6594C19.8704 17.9612 21.4578 19.5645 23.4421 19.5645C24.5057 19.5645 25.4899 19.0248 25.982 18.2152V19.374H27.8234V11.9607H25.982V12.9926ZM23.8231 17.8501C22.6166 17.8501 21.7118 16.85 21.7118 15.6594C21.7118 14.4689 22.6166 13.4847 23.8072 13.4847C24.9025 13.4847 25.9502 14.3895 25.9502 15.6594C25.9502 16.8976 24.966 17.8501 23.8231 17.8501ZM34.3212 11.7702C33.4322 11.7702 32.3687 12.1512 31.8607 12.9449V11.9607H30.0193V22.9934H31.8607V18.3898C32.3687 19.1835 33.4005 19.5645 34.3371 19.5645C36.2896 19.5645 37.9723 18.0406 37.9723 15.6753C37.9723 13.2942 36.2737 11.7702 34.3212 11.7702ZM34.0355 17.8501C32.9719 17.8501 31.8924 16.9929 31.8924 15.6753C31.8924 14.3736 32.9084 13.4847 34.0355 13.4847C35.1784 13.4847 36.1309 14.453 36.1309 15.6753C36.1309 16.9135 35.1784 17.8501 34.0355 17.8501ZM45.3908 12.9926C44.8987 12.2147 43.9145 11.7702 42.8985 11.7702C40.8031 11.7702 39.2792 13.4212 39.2792 15.6594C39.2792 17.9612 40.8666 19.5645 42.8509 19.5645C43.9145 19.5645 44.8987 19.0248 45.3908 18.2152V19.374H47.2322V11.9607H45.3908V12.9926ZM43.2319 17.8501C42.0254 17.8501 41.1206 16.85 41.1206 15.6594C41.1206 14.4689 42.0254 13.4847 43.216 13.4847C44.3113 13.4847 45.359 14.3895 45.359 15.6594C45.359 16.8976 44.3748 17.8501 43.2319 17.8501ZM53.5712 11.7702C52.8093 11.7702 51.6505 12.1988 51.2695 13.1354V11.9607H49.4281V19.374H51.2695V15.4372C51.2695 14.0085 52.3172 13.5164 53.1585 13.5164C53.984 13.5164 54.6983 14.1514 54.6983 15.342V19.374H56.5397V15.215C56.5397 13.0561 55.4762 11.7702 53.5712 11.7702Z" fill="#F5E2E2"/>
<rect x="0.661429" y="1.41338" width="67.4657" height="27.1186" rx="13.5593" stroke="#FCEEF1" stroke-width="1.32286"/>
</svg>
