<svg width="95" height="43" viewBox="0 0 95 43" fill="none" xmlns="http://www.w3.org/2000/svg">
<rect x="1" y="1" width="93" height="41" rx="20.5" fill="#171C8F"/>
<path d="M24.3798 30V13.464H21.4518V30H24.3798ZM34.2208 18.504C33.0688 18.504 31.3168 19.152 30.7408 20.568V18.792H27.9568V30H30.7408V24.048C30.7408 21.888 32.3248 21.144 33.5968 21.144C34.8448 21.144 35.9248 22.104 35.9248 23.904V30H38.7088V23.712C38.7088 20.448 37.1008 18.504 34.2208 18.504ZM50.4467 20.256C49.6787 19.08 48.1187 18.504 46.7027 18.504C43.7507 18.504 41.2067 20.784 41.2067 24.384C41.2067 27.96 43.7747 30.288 46.7267 30.288C48.0947 30.288 49.6787 29.688 50.4467 28.512V30H53.2307V12.696H50.4467V20.256ZM47.1587 27.696C45.4307 27.696 44.0147 26.232 44.0147 24.36C44.0147 22.488 45.4307 21.096 47.1587 21.096C48.7667 21.096 50.3987 22.392 50.3987 24.36C50.3987 26.328 48.8627 27.696 47.1587 27.696ZM57.9425 16.536C58.9505 16.536 59.7425 15.792 59.7425 14.832C59.7425 13.848 58.9505 13.128 57.9425 13.128C56.9585 13.128 56.1185 13.848 56.1185 14.832C56.1185 15.792 56.9585 16.536 57.9425 16.536ZM59.3345 30V18.792H56.5505V30H59.3345ZM71.2123 20.352C70.4683 19.176 68.9803 18.504 67.4443 18.504C64.2763 18.504 61.9723 21 61.9723 24.384C61.9723 27.864 64.3723 30.288 67.3723 30.288C68.9803 30.288 70.4683 29.472 71.2123 28.248V30H73.9963V18.792H71.2123V20.352ZM67.9483 27.696C66.1243 27.696 64.7563 26.184 64.7563 24.384C64.7563 22.584 66.1243 21.096 67.9243 21.096C69.5803 21.096 71.1643 22.464 71.1643 24.384C71.1643 26.256 69.6763 27.696 67.9483 27.696Z" fill="#F5E2E2"/>
<rect x="1" y="1" width="93" height="41" rx="20.5" stroke="#FCEEF1" stroke-width="2"/>
</svg>
