<svg width="240" height="200" viewBox="0 0 240 200" fill="none" xmlns="http://www.w3.org/2000/svg">
<path d="M95.6918 200H71.7689V162.878H95.6918V200ZM66.8527 24.8345L0 57.6997L47.8459 95.6011L66.8527 24.8345Z" fill="#FBC02D"/>
<path d="M180.388 131.436L239.227 187.626H191.381L160.568 155.751C146.142 167.927 127.722 175.252 107.65 175.252C61.4072 175.252 23.9199 136.472 23.9199 88.6346C23.9199 49.3968 49.1467 12.1512 83.7273 0V39.1388L180.388 131.436Z" fill="#BF360C"/>
<path opacity="0.3" d="M175.401 126.685C166.155 132.735 155.282 136.373 143.536 136.373C110.498 136.373 83.7285 108.68 83.7285 74.5037V39.1389L175.401 126.685Z" fill="black"/>
<path opacity="0.5" d="M71.7658 70.0737C71.7658 87.1621 58.3809 101.009 41.8621 101.009C35.3073 101.009 29.2906 98.7688 24.3625 95.069C24.207 92.9283 23.9199 90.8248 23.9199 88.6346C23.9199 71.1378 29.0155 53.7648 37.6876 39.1635C39.0512 38.9779 40.4507 39.1388 41.8621 39.1388C58.3809 39.1388 71.7658 52.9852 71.7658 70.0737Z" fill="black"/>
</svg>
