<svg width="49" height="49" viewBox="0 0 49 49" fill="none" xmlns="http://www.w3.org/2000/svg">
<ellipse cx="24.2698" cy="24.5" rx="24.2698" ry="24.5" fill="#FFE600"/>
<path fill-rule="evenodd" clip-rule="evenodd" d="M24.274 11.5818C15.7442 11.5818 8.82541 17.0936 8.82541 23.8981C8.82541 28.2718 11.6928 32.109 15.9939 34.296L14.536 39.7833C14.4797 39.9459 14.528 40.1329 14.6488 40.2549C14.7294 40.3361 14.8421 40.3851 14.9629 40.3851C15.0596 40.3851 15.1482 40.3443 15.2287 40.2792L21.487 36.0114C22.3971 36.1413 23.3234 36.2145 24.2659 36.2145C32.7955 36.2145 39.7143 30.7027 39.7143 23.8981C39.7224 17.0936 32.8036 11.5818 24.274 11.5818Z" fill="#381E1E"/>
<path fill-rule="evenodd" clip-rule="evenodd" d="M14.2362 21.9804H12.53C12.2932 21.9804 12.0973 21.9229 11.9259 21.8161C11.7544 21.7094 11.6565 21.5532 11.6156 21.3563C11.6075 21.3069 11.5993 21.2412 11.5912 21.1838C11.5912 20.9375 11.681 20.7403 11.8606 20.6007C12.0402 20.4611 12.2606 20.3873 12.53 20.3873H17.7383C17.9751 20.3873 18.1792 20.4448 18.3425 20.5516C18.514 20.6583 18.62 20.8061 18.6608 21.0114C18.6691 21.0689 18.6772 21.1263 18.6691 21.1838C18.6691 21.4383 18.5793 21.6355 18.4079 21.7751C18.2364 21.9147 18.016 21.9804 17.7383 21.9804H16.0403V27.8846C16.0403 28.1638 15.9587 28.3936 15.7954 28.566C15.6322 28.7385 15.4117 28.8207 15.1342 28.8207C14.9056 28.8207 14.7178 28.755 14.5546 28.6317C14.3913 28.5003 14.2933 28.3362 14.2525 28.1144C14.2362 28.0323 14.2362 27.9585 14.2362 27.8764V21.9804Z" fill="#FFE600"/>
<path fill-rule="evenodd" clip-rule="evenodd" d="M19.1584 20.951C19.231 20.7498 19.3359 20.6048 19.4812 20.5161C19.6265 20.4276 19.8039 20.3873 20.0301 20.3873H20.4577C20.6917 20.3873 20.8853 20.4356 21.0387 20.5243C21.1921 20.6128 21.321 20.7981 21.41 21.0638L23.5645 27.2895C23.6372 27.4827 23.6855 27.6438 23.7098 27.7886C23.726 27.8773 23.7421 27.9496 23.7421 28.0061C23.7421 28.2316 23.6534 28.4249 23.4919 28.5781C23.3305 28.7391 23.1288 28.8115 22.9028 28.8115C22.4912 28.8115 22.225 28.6425 22.104 28.304L21.644 26.951H18.771L18.3111 28.304C18.1981 28.6425 17.9317 28.8115 17.5122 28.8115C17.3024 28.8115 17.1248 28.7632 16.9878 28.6504C16.8424 28.5456 16.7536 28.3846 16.7133 28.1913C16.6971 28.135 16.6971 28.0706 16.6971 28.0061C16.6971 27.9174 16.7052 27.8049 16.7456 27.676C16.7778 27.547 16.8182 27.4181 16.8666 27.2974L19.1584 20.951ZM20.2318 22.3925H20.2075L19.1584 25.6624H21.2404L20.2318 22.3925Z" fill="#FFE600"/>
<path fill-rule="evenodd" clip-rule="evenodd" d="M23.9385 21.2994C23.9385 21.0273 24.0176 20.8033 24.1755 20.6353C24.3336 20.4674 24.547 20.3873 24.8157 20.3873C25.0369 20.3873 25.2265 20.4513 25.3767 20.5713C25.5269 20.6914 25.6297 20.8593 25.669 21.0674C25.685 21.1473 25.6928 21.2195 25.685 21.2994V27.0603H28.6007C28.8379 27.0603 29.0353 27.1082 29.1934 27.2203C29.3515 27.3242 29.4542 27.4763 29.4857 27.6683C29.5017 27.7162 29.5096 27.7804 29.5096 27.8362C29.5096 28.0843 29.4225 28.2763 29.2487 28.4043C29.0749 28.5405 28.8615 28.6045 28.6007 28.6045H24.958C24.6893 28.6045 24.468 28.5484 24.3021 28.4363C24.1362 28.3244 24.0255 28.1483 23.9702 27.8923C23.9464 27.7884 23.9385 27.6683 23.9306 27.5324L23.9385 21.2994Z" fill="#FFE600"/>
<path fill-rule="evenodd" clip-rule="evenodd" d="M29.6748 21.3054C29.6748 21.0316 29.7563 20.8061 29.9191 20.637C30.082 20.4678 30.3018 20.3873 30.5786 20.3873C30.8067 20.3873 30.9939 20.4517 31.1566 20.5724C31.3196 20.6933 31.4173 20.8623 31.4579 21.0719C31.4743 21.1523 31.4824 21.2249 31.4743 21.3054L31.4824 24.0033L34.3079 20.79C34.4381 20.6529 34.5438 20.5565 34.6498 20.4839C34.7555 20.4195 34.8778 20.3873 35.0242 20.3873C35.2197 20.3873 35.3989 20.4438 35.5616 20.5483C35.7246 20.6529 35.8222 20.7981 35.8629 20.9832C35.8629 20.9912 35.8712 21.0155 35.8792 21.0556C35.8792 21.0799 35.8792 21.1121 35.8873 21.1282C35.8873 21.2571 35.8548 21.3698 35.8061 21.4665C35.749 21.5713 35.6756 21.6677 35.5942 21.7646L33.746 23.7617L35.9282 27.1846L35.9933 27.2895C36.1399 27.5229 36.2294 27.6921 36.2537 27.8049C36.2537 27.8128 36.262 27.8371 36.2701 27.8612C36.2701 27.8934 36.2701 27.9095 36.2701 27.9174C36.2701 28.2316 36.1805 28.4651 36.0014 28.6021C35.8222 28.7391 35.6025 28.8115 35.3499 28.8115C35.1627 28.8115 35.0161 28.7793 34.9021 28.7149C34.7883 28.6425 34.6659 28.5216 34.5521 28.3283L32.4757 25.0262L31.4907 26.041L31.4987 27.8854C31.4987 28.1593 31.4173 28.3845 31.2545 28.5538C31.0915 28.7228 30.8718 28.8036 30.595 28.8036C30.3669 28.8036 30.1716 28.7391 30.0167 28.6182C29.8621 28.4894 29.7563 28.3283 29.7155 28.1107C29.6993 28.0302 29.6993 27.9578 29.6993 27.8773L29.6748 21.3054Z" fill="#FFE600"/>
</svg>
