<svg width="49" height="49" viewBox="0 0 49 49" fill="none" xmlns="http://www.w3.org/2000/svg">
<ellipse cx="24.7302" cy="24.5" rx="24.2698" ry="24.5" fill="black"/>
<path d="M30.1711 8.92291C30.113 8.85732 28.0183 8.9488 26.1956 10.9459C24.3728 12.9414 24.6532 15.2302 24.6943 15.2889C24.7353 15.3476 27.2933 15.4391 28.9263 13.1174C30.5593 10.7958 30.2293 8.99023 30.1711 8.92291ZM35.8378 29.1757C35.7557 29.01 31.8622 27.0456 32.2247 23.2688C32.5872 19.4903 35.0889 18.4546 35.1282 18.3424C35.1675 18.2302 34.1074 16.9788 32.9839 16.3453C32.1591 15.8987 31.2462 15.6428 30.3113 15.5962C30.1267 15.591 29.4854 15.4322 28.1671 15.7964C27.2985 16.0363 25.3406 16.8131 24.802 16.8441C24.2616 16.8752 22.6543 15.9431 20.9256 15.6963C19.8193 15.4805 18.6463 15.9224 17.8067 16.2624C16.9688 16.6008 15.3752 17.5639 14.2603 20.1238C13.1455 22.6819 13.7285 26.7349 14.1458 27.995C14.563 29.2533 15.2145 31.3161 16.3225 32.8213C17.3074 34.5198 18.6138 35.6987 19.1592 36.0992C19.7047 36.4997 21.2436 36.7655 22.3106 36.2148C23.169 35.6832 24.7182 35.3777 25.3303 35.4001C25.9408 35.4226 27.1446 35.6659 28.3774 36.3305C29.3538 36.6705 30.2771 36.529 31.2022 36.1493C32.1273 35.7678 33.4661 34.3213 35.029 31.3886C35.6223 30.0249 35.8925 29.2879 35.8378 29.1757Z" fill="white"/>
<path d="M30.1711 8.92291C30.113 8.85732 28.0183 8.9488 26.1956 10.9459C24.3728 12.9414 24.6532 15.2302 24.6943 15.2889C24.7353 15.3476 27.2933 15.4391 28.9263 13.1174C30.5593 10.7958 30.2293 8.99023 30.1711 8.92291ZM35.8378 29.1757C35.7557 29.01 31.8622 27.0456 32.2247 23.2688C32.5872 19.4903 35.0889 18.4546 35.1282 18.3424C35.1675 18.2302 34.1074 16.9788 32.9839 16.3453C32.1591 15.8987 31.2462 15.6428 30.3113 15.5962C30.1267 15.591 29.4854 15.4322 28.1671 15.7964C27.2985 16.0363 25.3406 16.8131 24.802 16.8441C24.2616 16.8752 22.6543 15.9431 20.9256 15.6963C19.8193 15.4805 18.6463 15.9224 17.8067 16.2624C16.9688 16.6008 15.3752 17.5639 14.2603 20.1238C13.1455 22.6819 13.7285 26.7349 14.1458 27.995C14.563 29.2533 15.2145 31.3161 16.3225 32.8213C17.3074 34.5198 18.6138 35.6987 19.1592 36.0992C19.7047 36.4997 21.2436 36.7655 22.3106 36.2148C23.169 35.6832 24.7182 35.3777 25.3303 35.4001C25.9408 35.4226 27.1446 35.6659 28.3774 36.3305C29.3538 36.6705 30.2771 36.529 31.2022 36.1493C32.1273 35.7678 33.4661 34.3213 35.029 31.3886C35.6223 30.0249 35.8925 29.2879 35.8378 29.1757Z" fill="white"/>
</svg>
