<svg width="18" height="18" viewBox="0 0 18 18" fill="none" xmlns="http://www.w3.org/2000/svg">
<path d="M12.1254 7.75V4C12.1254 3.1712 11.7961 2.37634 11.2101 1.79029C10.624 1.20424 9.82915 0.875 9.00035 0.875C8.17155 0.875 7.3767 1.20424 6.79064 1.79029C6.20459 2.37634 5.87535 3.1712 5.87535 4V7.75M15.3387 6.08917L16.3912 16.0892C16.4495 16.6433 16.0162 17.125 15.4587 17.125H2.54202C2.41053 17.1251 2.28047 17.0976 2.16031 17.0442C2.04015 16.9908 1.93256 16.9127 1.84454 16.8151C1.75652 16.7174 1.69003 16.6023 1.6494 16.4772C1.60877 16.3521 1.59489 16.2199 1.60869 16.0892L2.66202 6.08917C2.68632 5.8588 2.79504 5.64558 2.96723 5.49063C3.13942 5.33568 3.36288 5.24996 3.59452 5.25H14.4062C14.8862 5.25 15.2887 5.6125 15.3387 6.08917ZM6.18785 7.75C6.18785 7.83288 6.15493 7.91237 6.09632 7.97097C6.03772 8.02958 5.95823 8.0625 5.87535 8.0625C5.79247 8.0625 5.71299 8.02958 5.65438 7.97097C5.59578 7.91237 5.56285 7.83288 5.56285 7.75C5.56285 7.66712 5.59578 7.58763 5.65438 7.52903C5.71299 7.47042 5.79247 7.4375 5.87535 7.4375C5.95823 7.4375 6.03772 7.47042 6.09632 7.52903C6.15493 7.58763 6.18785 7.66712 6.18785 7.75ZM12.4379 7.75C12.4379 7.83288 12.4049 7.91237 12.3463 7.97097C12.2877 8.02958 12.2082 8.0625 12.1254 8.0625C12.0425 8.0625 11.963 8.02958 11.9044 7.97097C11.8458 7.91237 11.8129 7.83288 11.8129 7.75C11.8129 7.66712 11.8458 7.58763 11.9044 7.52903C11.963 7.47042 12.0425 7.4375 12.1254 7.4375C12.2082 7.4375 12.2877 7.47042 12.3463 7.52903C12.4049 7.58763 12.4379 7.66712 12.4379 7.75Z" stroke="black" stroke-width="1.5" stroke-linecap="round" stroke-linejoin="round"/>
</svg>
