<svg width="25" height="26" viewBox="0 0 25 26" fill="none" xmlns="http://www.w3.org/2000/svg">
<path d="M12.4999 3.625C18.5416 3.625 23.4385 7.44167 23.4385 12.151C23.4385 16.8594 18.5416 20.676 12.501 20.676C11.8995 20.6763 11.2986 20.6381 10.702 20.5615L6.11035 23.5646C5.58848 23.8406 5.4041 23.8104 5.61868 23.1344L6.54785 19.3031C3.54785 17.7823 1.56348 15.1469 1.56348 12.151C1.56348 7.44271 6.45931 3.625 12.501 3.625M18.6551 12.0208L20.1864 10.5375C20.2747 10.4457 20.324 10.3233 20.3239 10.1959C20.3237 10.0685 20.2741 9.94614 20.1856 9.85459C20.097 9.76304 19.9763 9.70945 19.849 9.70509C19.7217 9.70074 19.5977 9.74597 19.5031 9.83125L17.4947 11.775V10.1688C17.4947 10.0384 17.4429 9.9133 17.3507 9.82109C17.2585 9.72888 17.1335 9.67708 17.0031 9.67708C16.8727 9.67708 16.7476 9.72888 16.6554 9.82109C16.5632 9.9133 16.5114 10.0384 16.5114 10.1688V12.8323C16.493 12.9083 16.493 12.9876 16.5114 13.0635V14.5625C16.5114 14.6929 16.5632 14.818 16.6554 14.9102C16.7476 15.0024 16.8727 15.0542 17.0031 15.0542C17.1335 15.0542 17.2585 15.0024 17.3507 14.9102C17.4429 14.818 17.4947 14.6929 17.4947 14.5625V13.1427L17.9395 12.7125L19.427 14.8302C19.4642 14.8831 19.5113 14.9281 19.5659 14.9628C19.6204 14.9974 19.6813 15.0209 19.7449 15.0321C19.8086 15.0432 19.8738 15.0417 19.9368 15.0276C19.9999 15.0135 20.0596 14.9871 20.1124 14.95C20.1653 14.9129 20.2103 14.8657 20.245 14.8111C20.2796 14.7566 20.3032 14.6957 20.3143 14.6321C20.3254 14.5685 20.3239 14.5032 20.3098 14.4402C20.2957 14.3771 20.2694 14.3175 20.2322 14.2646L18.6551 12.0208ZM15.5739 14.025H14.0531V10.1844C14.0472 10.058 13.993 9.93878 13.9015 9.85143C13.81 9.76408 13.6884 9.71533 13.5619 9.71533C13.4354 9.71533 13.3138 9.76408 13.2223 9.85143C13.1309 9.93878 13.0766 10.058 13.0708 10.1844V14.5167C13.0708 14.7875 13.2895 15.0083 13.5614 15.0083H15.5739C15.7043 15.0083 15.8293 14.9565 15.9216 14.8643C16.0138 14.7721 16.0656 14.6471 16.0656 14.5167C16.0656 14.3863 16.0138 14.2612 15.9216 14.169C15.8293 14.0768 15.7043 14.025 15.5739 14.025ZM9.47285 12.8885L10.1979 11.1094L10.8624 12.8875L9.47285 12.8885ZM12.101 13.3958L12.1031 13.3792C12.1028 13.2553 12.0555 13.1362 11.9708 13.0458L10.8812 10.1292C10.8355 9.99018 10.7485 9.86843 10.6318 9.7802C10.5151 9.69197 10.3742 9.64146 10.2281 9.63542C10.0808 9.63477 9.93685 9.67897 9.81534 9.76215C9.69383 9.84533 9.60053 9.96354 9.54785 10.101L7.8166 14.3458C7.76729 14.4666 7.76795 14.6019 7.81845 14.7222C7.86895 14.8424 7.96514 14.9377 8.08587 14.987C8.2066 15.0363 8.34197 15.0356 8.46221 14.9851C8.58245 14.9346 8.6777 14.8384 8.72702 14.7177L9.07285 13.8708H11.2291L11.5395 14.7042C11.5607 14.7665 11.5942 14.8239 11.6379 14.873C11.6817 14.9221 11.7349 14.9619 11.7943 14.9901C11.8538 15.0183 11.9182 15.0343 11.984 15.0371C12.0497 15.04 12.1153 15.0295 12.177 15.0065C12.2386 14.9835 12.295 14.9484 12.3428 14.9032C12.3906 14.858 12.4289 14.8036 12.4553 14.7434C12.4817 14.6831 12.4958 14.6182 12.4966 14.5524C12.4975 14.4866 12.4852 14.4213 12.4604 14.3604L12.101 13.3958ZM8.63952 10.1896C8.63952 10.0594 8.58786 9.93447 8.49588 9.84229C8.4039 9.75011 8.27911 9.69819 8.14889 9.69792H4.76868C4.63829 9.69792 4.51323 9.74972 4.42102 9.84192C4.32882 9.93413 4.27702 10.0592 4.27702 10.1896C4.27702 10.32 4.32882 10.445 4.42102 10.5372C4.51323 10.6295 4.63829 10.6813 4.76868 10.6813H5.97702V14.5729C5.97702 14.7033 6.02882 14.8284 6.12102 14.9206C6.21323 15.0128 6.33829 15.0646 6.46868 15.0646C6.59908 15.0646 6.72414 15.0128 6.81635 14.9206C6.90855 14.8284 6.96035 14.7033 6.96035 14.5729V10.6813H8.14785C8.27825 10.6813 8.40331 10.6295 8.49551 10.5372C8.58772 10.445 8.63952 10.32 8.63952 10.1896Z" fill="black"/>
</svg>
