<?xml version="1.0" encoding="UTF-8"?> <svg xmlns="http://www.w3.org/2000/svg" width="36" height="36" viewBox="0 0 36 36" fill="none"><path d="M7.77023 28.2376C9.73152 30.2064 12.9735 30.1773 14.9376 28.2142L19.732 23.4197C19.733 23.4187 19.7348 23.4178 19.7358 23.4159C19.8577 23.295 19.7564 23.0869 19.5867 23.1037C19.3786 23.1253 19.1695 23.1365 18.9586 23.1365C18.3276 23.1365 17.7089 23.04 17.1126 22.8506C17.0479 22.83 16.9767 22.8469 16.9279 22.8965L13.2641 26.5594C12.215 27.6085 10.5059 27.6348 9.4512 26.5913C8.3918 25.5441 8.38805 23.8303 9.43995 22.7794L13.205 19.0124L14.2654 17.953C15.1007 17.1177 16.3542 16.948 17.3592 17.4439C17.6217 17.5724 17.8617 17.7458 18.0679 17.953C18.1298 18.0149 18.1879 18.0796 18.2433 18.1461C18.697 18.6965 19.5136 18.7818 20.0508 18.3102C20.077 18.2868 20.1042 18.2615 20.1305 18.2352C20.4942 17.8714 20.543 17.2949 20.2383 16.8805C20.0883 16.6733 19.9186 16.4755 19.732 16.2889C19.3345 15.8914 18.8705 15.5586 18.3633 15.3139C16.6345 14.4776 14.5279 14.6867 12.9894 15.9392C12.8544 16.0489 12.725 16.1661 12.6022 16.2889L7.77679 21.1143C5.81081 23.0812 5.80894 26.2697 7.77023 28.2376Z" fill="#333333"></path><path d="M15.5546 13.7977C15.7627 13.7761 15.9727 13.7649 16.1837 13.7649C16.8146 13.7649 17.4334 13.8614 18.0287 14.0518C18.0934 14.0724 18.1656 14.0546 18.2134 14.0058L21.8782 10.342C22.9272 9.29292 24.6345 9.26667 25.6892 10.3101C26.7486 11.3573 26.7523 13.0721 25.7004 14.124L21.9353 17.8881L20.875 18.9484C20.0387 19.7847 18.7862 19.9534 17.7821 19.4575C17.5196 19.3281 17.2796 19.1547 17.0724 18.9484C17.0115 18.8865 16.9524 18.8219 16.8971 18.7562C16.4443 18.205 15.6268 18.1206 15.0915 18.5903C15.0643 18.6137 15.0371 18.64 15.0118 18.6653C14.6471 19.0291 14.5993 19.6047 14.9021 20.0209C15.054 20.2272 15.2227 20.425 15.4093 20.6116C15.8068 21.01 16.2718 21.3419 16.779 21.5857C18.5068 22.4229 20.6125 22.2129 22.1528 20.9603C22.2869 20.8507 22.4163 20.7353 22.5391 20.6116L27.3636 15.7862C29.3314 13.8202 29.3333 10.6317 27.3701 8.66291C25.4098 6.69505 22.1678 6.72224 20.2028 8.68728L15.4093 13.4818C15.4074 13.4827 15.4065 13.4846 15.4046 13.4855C15.2836 13.6074 15.383 13.8155 15.5546 13.7977Z" fill="#333333"></path></svg> 