<svg width="49" height="49" viewBox="0 0 49 49" fill="none" xmlns="http://www.w3.org/2000/svg">
<ellipse cx="24.6349" cy="24.5" rx="24.2698" ry="24.5" fill="#00C536"/>
<path fill-rule="evenodd" clip-rule="evenodd" d="M20.89 13.4306C18.1726 13.3062 15.4467 13.395 12.7206 13.3861C12.7381 20.7969 12.7293 28.2077 12.7293 35.6186C15.4467 35.6364 18.1726 35.6275 20.89 35.6186C20.9334 31.9487 20.8376 28.27 20.9334 24.5912C21.8305 25.8619 22.6405 27.1948 23.5551 28.4477C25.0791 30.8646 26.8037 33.1394 28.2667 35.5919C31.0102 35.663 33.745 35.5919 36.4883 35.6364C36.5144 35.2898 36.5492 34.9433 36.5492 34.5967C36.5058 27.5235 36.5841 20.4504 36.5144 13.3772C33.8059 13.3595 31.0973 13.3861 28.3886 13.3684C28.3713 17.0649 28.4061 20.7614 28.3625 24.449C25.8457 20.8058 23.468 17.0382 20.89 13.4306Z" fill="white"/>
</svg>
