<svg width="49" height="49" viewBox="0 0 49 49" fill="none" xmlns="http://www.w3.org/2000/svg">
<ellipse cx="24.3651" cy="24.5" rx="24.2698" ry="24.5" fill="#EA4335"/>
<path d="M35.6022 23.2237C35.7423 24.028 35.808 24.85 35.808 25.6675C35.808 29.3266 34.5122 32.4201 32.2576 34.5148H32.262C30.2877 36.3532 27.5779 37.4182 24.3647 37.4182C19.86 37.4182 15.7406 34.855 13.7181 30.7938C12.0283 27.3954 12.0283 23.3916 13.7181 19.9933C15.7406 15.9276 19.86 13.3644 24.3647 13.3644C27.324 13.3291 30.1826 14.4516 32.3364 16.4932L28.935 19.927C27.7049 18.7426 26.0632 18.0974 24.3647 18.1239C21.2565 18.1239 18.6168 20.2407 17.6756 23.0911C17.1765 24.5848 17.1765 26.2022 17.6756 27.6959H17.6799C18.6255 30.5419 21.2609 32.6587 24.3691 32.6587C25.9757 32.6587 27.3546 32.2433 28.4228 31.5097H28.4184C29.6748 30.6701 30.5328 29.3487 30.7999 27.855H24.3647V23.2237H35.6022Z" fill="white"/>
</svg>
