<?xml version="1.0" encoding="UTF-8"?> <svg xmlns="http://www.w3.org/2000/svg" width="25" height="22" viewBox="0 0 25 22" fill="none"><path d="M1 7V1H24V7.5L23 8.5L22 9V20L21 20.5L20 21H4.5L3.5 20L3 19V9.5L2.5 9L1.5 8L1 7Z" fill="#F5E2E2"></path><path d="M24.2212 1V7.00005" stroke="#333333" stroke-linecap="round" stroke-linejoin="round"></path><path d="M1 1H24.2211" stroke="#333333" stroke-linecap="round" stroke-linejoin="round"></path><path d="M6.80566 7.00005V1" stroke="#333333" stroke-linecap="round" stroke-linejoin="round"></path><path d="M12.6104 7.00005V1" stroke="#333333" stroke-linecap="round" stroke-linejoin="round"></path><path d="M1.00001 6.99707C0.999112 7.26017 1.05305 7.52085 1.15874 7.76415C1.26443 8.00746 1.4198 8.22859 1.61591 8.41487C1.81203 8.60115 2.04505 8.74891 2.30158 8.84968C2.55812 8.95044 2.83313 9.00222 3.11084 9.00205" fill="#F5E2E2"></path><path d="M1.00001 6.99707C0.999112 7.26017 1.05305 7.52085 1.15874 7.76415C1.26443 8.00746 1.4198 8.22859 1.61591 8.41487C1.81203 8.60115 2.04505 8.74891 2.30158 8.84968C2.55812 8.95044 2.83313 9.00222 3.11084 9.00205" stroke="#333333" stroke-linecap="round" stroke-linejoin="round"></path><path d="M24.2212 6.99707C24.2221 7.26017 24.1681 7.52085 24.0624 7.76415C23.9567 8.00746 23.8014 8.22859 23.6053 8.41487C23.4091 8.60115 23.1761 8.74891 22.9196 8.84968C22.6631 8.95044 22.3881 9.00222 22.1104 9.00205" fill="#F5E2E2"></path><path d="M24.2212 6.99707C24.2221 7.26017 24.1681 7.52085 24.0624 7.76415C23.9567 8.00746 23.8014 8.22859 23.6053 8.41487C23.4091 8.60115 23.1761 8.74891 22.9196 8.84968C22.6631 8.95044 22.3881 9.00222 22.1104 9.00205" stroke="#333333" stroke-linecap="round" stroke-linejoin="round"></path><path d="M18.4155 7.00005V1" stroke="#333333" stroke-linecap="round" stroke-linejoin="round"></path><path d="M3.11084 9V18.9997" stroke="#333333" stroke-linecap="round" stroke-linejoin="round"></path><path d="M22.1104 9V18.9997" stroke="#333333" stroke-linecap="round" stroke-linejoin="round"></path><path d="M9.44385 13V20.9999" stroke="#333333" stroke-linecap="round" stroke-linejoin="round"></path><path d="M15.7773 13V20.9999" stroke="#333333" stroke-linecap="round" stroke-linejoin="round"></path><path d="M9.44385 13H15.777" stroke="#333333" stroke-linecap="round" stroke-linejoin="round"></path><path d="M3.11084 19C3.11066 19.2627 3.16512 19.5228 3.27113 19.7655C3.37715 20.0082 3.53263 20.2287 3.72868 20.4145C3.92472 20.6002 4.15748 20.7475 4.41366 20.8479C4.66984 20.9484 4.9444 21 5.22165 20.9998" fill="#F5E2E2"></path><path d="M3.11084 19C3.11066 19.2627 3.16512 19.5228 3.27113 19.7655C3.37715 20.0082 3.53263 20.2287 3.72868 20.4145C3.92472 20.6002 4.15748 20.7475 4.41366 20.8479C4.66984 20.9484 4.9444 21 5.22165 20.9998" stroke="#333333" stroke-linecap="round" stroke-linejoin="round"></path><path d="M22.11 19C22.1101 19.2627 22.0556 19.5228 21.9495 19.7655C21.8434 20.0083 21.6879 20.2288 21.4918 20.4145C21.2957 20.6002 21.0628 20.7475 20.8066 20.8479C20.5504 20.9484 20.2758 21 19.9985 20.9998" fill="#F5E2E2"></path><path d="M22.11 19C22.1101 19.2627 22.0556 19.5228 21.9495 19.7655C21.8434 20.0083 21.6879 20.2288 21.4918 20.4145C21.2957 20.6002 21.0628 20.7475 20.8066 20.8479C20.5504 20.9484 20.2758 21 19.9985 20.9998" stroke="#333333" stroke-linecap="round" stroke-linejoin="round"></path><path d="M12.6113 6.99707C12.6105 7.26009 12.6645 7.52068 12.7702 7.7639C12.8759 8.00712 13.0312 8.22819 13.2272 8.41445C13.4232 8.6007 13.6561 8.74848 13.9125 8.84932C14.1689 8.95015 14.4439 9.00205 14.7215 9.00205" fill="#F5E2E2"></path><path d="M12.6113 6.99707C12.6105 7.26009 12.6645 7.52068 12.7702 7.7639C12.8759 8.00712 13.0312 8.22819 13.2272 8.41445C13.4232 8.6007 13.6561 8.74848 13.9125 8.84932C14.1689 8.95015 14.4439 9.00205 14.7215 9.00205" stroke="#333333" stroke-linecap="round" stroke-linejoin="round"></path><path d="M18.4146 6.99707C18.4137 7.26028 18.4676 7.52106 18.5734 7.76445C18.6792 8.00784 18.8347 8.22903 19.0309 8.41533C19.2272 8.60163 19.4604 8.74936 19.7171 8.85005C19.9738 8.95073 20.2489 9.00239 20.5267 9.00205" fill="#F5E2E2"></path><path d="M18.4146 6.99707C18.4137 7.26028 18.4676 7.52106 18.5734 7.76445C18.6792 8.00784 18.8347 8.22903 19.0309 8.41533C19.2272 8.60163 19.4604 8.74936 19.7171 8.85005C19.9738 8.95073 20.2489 9.00239 20.5267 9.00205" stroke="#333333" stroke-linecap="round" stroke-linejoin="round"></path><path d="M6.8086 6.99707C6.80771 7.2599 6.86154 7.52031 6.96702 7.7634C7.0725 8.00649 7.22754 8.22748 7.4233 8.41372C7.61905 8.59996 7.85166 8.74779 8.1078 8.84874C8.36394 8.9497 8.63859 9.00179 8.91601 9.00205" fill="#F5E2E2"></path><path d="M6.8086 6.99707C6.80771 7.2599 6.86154 7.52031 6.96702 7.7634C7.0725 8.00649 7.22754 8.22748 7.4233 8.41372C7.61905 8.59996 7.85166 8.74779 8.1078 8.84874C8.36394 8.9497 8.63859 9.00179 8.91601 9.00205" stroke="#333333" stroke-linecap="round" stroke-linejoin="round"></path><path d="M6.80867 6.99707C6.80948 7.26058 6.75529 7.52165 6.64923 7.76525C6.54316 8.00885 6.3873 8.23018 6.19062 8.41652C5.99395 8.60285 5.76033 8.75051 5.5032 8.85099C5.24608 8.95148 4.97052 9.00281 4.69238 9.00205" fill="#F5E2E2"></path><path d="M6.80867 6.99707C6.80948 7.26058 6.75529 7.52165 6.64923 7.76525C6.54316 8.00885 6.3873 8.23018 6.19062 8.41652C5.99395 8.60285 5.76033 8.75051 5.5032 8.85099C5.24608 8.95148 4.97052 9.00281 4.69238 9.00205" stroke="#333333" stroke-linecap="round" stroke-linejoin="round"></path><path d="M12.6117 6.99707C12.6126 7.26028 12.5586 7.52106 12.4528 7.76445C12.347 8.00784 12.1916 8.22903 11.9953 8.41533C11.799 8.60163 11.5659 8.74936 11.3092 8.85005C11.0525 8.95073 10.7773 9.00239 10.4995 9.00205" fill="#F5E2E2"></path><path d="M12.6117 6.99707C12.6126 7.26028 12.5586 7.52106 12.4528 7.76445C12.347 8.00784 12.1916 8.22903 11.9953 8.41533C11.799 8.60163 11.5659 8.74936 11.3092 8.85005C11.0525 8.95073 10.7773 9.00239 10.4995 9.00205" stroke="#333333" stroke-linecap="round" stroke-linejoin="round"></path><path d="M18.4141 6.99707C18.415 7.26006 18.3611 7.52064 18.2555 7.76385C18.1499 8.00707 17.9947 8.22815 17.7987 8.41441C17.6027 8.60068 17.3699 8.74846 17.1135 8.8493C16.8571 8.95014 16.5823 9.00205 16.3047 9.00205" fill="#F5E2E2"></path><path d="M18.4141 6.99707C18.415 7.26006 18.3611 7.52064 18.2555 7.76385C18.1499 8.00707 17.9947 8.22815 17.7987 8.41441C17.6027 8.60068 17.3699 8.74846 17.1135 8.8493C16.8571 8.95014 16.5823 9.00205 16.3047 9.00205" stroke="#333333" stroke-linecap="round" stroke-linejoin="round"></path><path d="M3.11084 9H4.69395" stroke="#333333" stroke-linecap="round" stroke-linejoin="round"></path><path d="M8.91602 9H10.4991" stroke="#333333" stroke-linecap="round" stroke-linejoin="round"></path><path d="M14.7217 9H16.3048" stroke="#333333" stroke-linecap="round" stroke-linejoin="round"></path><path d="M20.5264 9H22.1095" stroke="#333333" stroke-linecap="round" stroke-linejoin="round"></path><path d="M1 1V7.00005" stroke="#333333" stroke-linecap="round" stroke-linejoin="round"></path><path d="M5.22168 21H19.9988" stroke="#333333" stroke-linecap="round" stroke-linejoin="round"></path></svg> 