<svg width="191" height="190" xmlns="http://www.w3.org/2000/svg" xmlns:xlink="http://www.w3.org/1999/xlink" overflow="hidden"><defs><clipPath id="clip0"><rect x="241" y="244" width="191" height="190"/></clipPath></defs><g clip-path="url(#clip0)" transform="translate(-241 -244)"><path d="M415.307 244 257.108 244C248.782 244 242 250.78 242 259.15L242 418.191C242 426.561 248.782 433.341 257.108 433.341L415.307 433.341C423.633 433.341 430.377 426.561 430.377 418.191L430.377 259.15C430.377 250.818 423.633 244 415.307 244Z" fill="#F3D60A" fill-rule="evenodd"/><path d="M367.216 287 317.087 287C313.722 287 311 289.726 311 293.058L311 342.85C311 346.219 313.722 348.908 317.087 348.908L340.185 348.908C340.034 354.815 337.539 361.251 333.985 366.969 329.94 373.406 321.359 380.562 321.283 380.6 320.602 381.244 320.111 382.001 320.111 383.023 320.111 383.818 320.527 384.424 320.98 385.068L337.085 403.205C337.085 403.205 337.879 404.038 338.522 404.189 339.24 404.379 340.072 404.379 340.639 403.924 368.539 382.455 372.584 355.496 373.265 340.918L373.265 293.058C373.302 289.726 370.58 287 367.216 287" fill="#FFFFFF" fill-rule="evenodd"/></g></svg>