<svg width="190" height="191" xmlns="http://www.w3.org/2000/svg" xmlns:xlink="http://www.w3.org/1999/xlink" overflow="hidden"><defs><clipPath id="clip0"><rect x="852" y="243" width="190" height="191"/></clipPath></defs><g clip-path="url(#clip0)" transform="translate(-852 -243)"><path d="M1041.04 418.191C1041.04 426.561 1034.27 433.341 1025.88 433.341L867.158 433.341C858.804 433.341 852 426.561 852 418.191L852 259.15C852 250.78 858.804 244 867.158 244L1025.88 244C1034.23 244 1041.04 250.78 1041.04 259.15L1041.04 418.191Z" fill="#27A8E0" fill-rule="evenodd"/><path d="M1009.11 304.991C1004.54 307.034 999.624 308.396 994.483 309.001 999.738 305.824 1003.78 300.83 1005.67 294.891 1000.76 297.804 995.315 299.922 989.493 301.057 984.843 296.102 978.227 293 970.93 293 956.867 293 945.45 304.424 945.45 318.496 945.45 320.501 945.677 322.43 946.093 324.321 924.922 323.262 906.171 313.124 893.62 297.691 891.427 301.436 890.179 305.824 890.179 310.476 890.179 319.328 894.678 327.121 901.521 331.698 897.362 331.546 893.43 330.412 889.99 328.52L889.99 328.861C889.99 341.193 898.761 351.519 910.405 353.865 908.25 354.432 906.02 354.735 903.713 354.735 902.05 354.735 900.462 354.584 898.912 354.281 902.163 364.419 911.577 371.757 922.729 371.984 913.996 378.831 903.033 382.879 891.087 382.879 889.045 382.879 887.004 382.765 885 382.538 896.266 389.763 909.649 394 924.052 394 970.893 394 996.487 355.189 996.487 321.484 996.487 320.387 996.449 319.29 996.411 318.193 1001.36 314.6 1005.71 310.098 1009.11 304.991" fill="#FFFFFF" fill-rule="evenodd"/></g></svg>