<svg width="190" height="191" xmlns="http://www.w3.org/2000/svg" xmlns:xlink="http://www.w3.org/1999/xlink" overflow="hidden"><defs><clipPath id="clip0"><rect x="445" y="243" width="190" height="191"/></clipPath></defs><g clip-path="url(#clip0)" transform="translate(-445 -243)"><path d="M634.038 418.191C634.038 426.561 627.272 433.341 618.88 433.341L460.158 433.341C451.804 433.341 445 426.561 445 418.191L445 259.15C445 250.78 451.804 244 460.158 244L618.88 244C627.234 244 634.038 250.78 634.038 259.15L634.038 418.191Z" fill="#D1252A" fill-rule="evenodd"/><path d="M579.441 301.403C575.325 300.797 555.431 300 539.652 300 523.874 300 504.018 300.797 499.864 301.403 492.699 302.541 488.773 305.766 486.677 314.072 485.991 316.841 485 332.128 485 337.931L485 339.221C485 345.062 485.953 360.31 486.677 363.079 488.735 371.386 492.66 374.572 499.864 375.71 503.98 376.317 523.874 377.076 539.691 377.076L539.614 377.076C555.393 377.076 575.287 376.279 579.441 375.672 586.644 374.534 590.532 371.31 592.628 363.041 593.314 360.272 594.267 344.986 594.267 339.183L594.267 337.893C594.267 332.09 593.314 316.803 592.628 314.034 590.532 305.728 586.606 302.541 579.441 301.403" fill="#FFFFFF" fill-rule="evenodd"/><path d="M527 325 552.257 338.241 527 352.148Z" fill="#D02527" fill-rule="evenodd"/></g></svg>