<svg width="84" height="43" viewBox="0 0 84 43" fill="none" xmlns="http://www.w3.org/2000/svg">
<rect x="1" y="1" width="82" height="41" rx="20.5" fill="#171C8F"/>
<path d="M27.5428 30.288C30.8548 30.288 33.7588 28.032 33.7588 24.24V13.464H30.8308V24.12C30.8308 26.472 29.2708 27.504 27.5428 27.504C25.7908 27.504 24.2308 26.472 24.2308 24.12V13.464H21.3028V24.24C21.3028 28.032 24.2068 30.288 27.5428 30.288ZM50.9884 30L44.7964 13.464H41.6284L35.4124 30H38.5324L39.9484 25.944H46.4524L47.8924 30H50.9884ZM43.2124 16.68L45.5644 23.4H40.8364L43.2124 16.68ZM55.9223 23.208H62.2583V20.544H55.9223V16.08H63.1703V13.464H53.0183V30H63.4103V27.384H55.9223V23.208Z" fill="#F5E2E2"/>
<rect x="1" y="1" width="82" height="41" rx="20.5" stroke="#FCEEF1" stroke-width="2"/>
</svg>
