<svg width="100" height="29" viewBox="0 0 100 29" fill="none" xmlns="http://www.w3.org/2000/svg">
<rect x="0.661429" y="0.661429" width="98.5529" height="27.1186" rx="13.5593" fill="#171C8F"/>
<path d="M17.3989 19.7207V8.78332H15.4623V19.7207H17.3989ZM23.908 12.1169C23.146 12.1169 21.9872 12.5455 21.6062 13.4821V12.3074H19.7648V19.7207H21.6062V15.7839C21.6062 14.3552 22.6539 13.8631 23.4953 13.8631C24.3207 13.8631 25.0351 14.4981 25.0351 15.6886V19.7207H26.8765V15.5616C26.8765 13.4027 25.8129 12.1169 23.908 12.1169ZM34.6403 13.2757C34.1323 12.4979 33.1005 12.1169 32.1639 12.1169C30.2113 12.1169 28.5287 13.625 28.5287 16.0061C28.5287 18.3714 30.2272 19.9112 32.1798 19.9112C33.0846 19.9112 34.1323 19.5143 34.6403 18.7365V19.7207H36.4817V8.27534H34.6403V13.2757ZM32.4655 18.1968C31.3225 18.1968 30.386 17.2284 30.386 15.9902C30.386 14.7521 31.3225 13.8313 32.4655 13.8313C33.5291 13.8313 34.6085 14.6886 34.6085 15.9902C34.6085 17.2919 33.5926 18.1968 32.4655 18.1968ZM42.154 19.9112C44.2653 19.9112 46.1067 18.3555 46.1067 16.0061C46.1067 13.6567 44.2653 12.1169 42.154 12.1169C40.0427 12.1169 38.2172 13.6567 38.2172 16.0061C38.2172 18.3555 40.0427 19.9112 42.154 19.9112ZM42.154 18.1968C41.0111 18.1968 40.0745 17.3078 40.0745 16.0061C40.0745 14.7362 41.0111 13.8313 42.154 13.8313C43.297 13.8313 44.2494 14.7362 44.2494 16.0061C44.2494 17.3078 43.297 18.1968 42.154 18.1968ZM51.9826 12.1169C51.2206 12.1169 50.0618 12.5455 49.6808 13.4821V12.3074H47.8394V19.7207H49.6808V15.7839C49.6808 14.3552 50.7285 13.8631 51.5698 13.8631C52.3953 13.8631 53.1096 14.4981 53.1096 15.6886V19.7207H54.951V15.5616C54.951 13.4027 53.8875 12.1169 51.9826 12.1169ZM64.2705 15.9426C64.2705 13.625 62.6037 12.1169 60.4924 12.1169C58.3653 12.1169 56.6032 13.6409 56.6032 16.0061C56.6032 18.3238 58.2859 19.9112 60.4924 19.9112C61.8417 19.9112 63.1593 19.308 63.8419 18.2285L62.6037 17.2919C62.1751 17.8952 61.3972 18.2444 60.6035 18.2444C59.4923 18.2444 58.6986 17.6888 58.4923 16.657H64.2387C64.2546 16.3871 64.2705 16.149 64.2705 15.9426ZM58.4923 15.3711C58.7145 14.2441 59.5241 13.752 60.5083 13.752C61.5401 13.752 62.3338 14.3552 62.4449 15.3711H58.4923ZM68.4379 19.9112C69.9459 19.9112 71.454 19.0857 71.454 17.5777C71.454 16.8951 71.1524 15.8474 69.4856 15.4188L68.295 15.1013C67.8664 15.006 67.5013 14.7838 67.5013 14.4028C67.5013 13.9425 67.8981 13.6091 68.4696 13.6091C68.9935 13.6091 69.4538 13.9266 69.4538 14.4346H71.2159C71.2317 12.7836 69.7396 12.1169 68.422 12.1169C66.8028 12.1169 65.6599 13.1646 65.6599 14.3234C65.6599 15.26 66.0885 16.149 67.7553 16.5935L68.7395 16.8475C69.2951 16.9745 69.6126 17.1649 69.6126 17.5777C69.6126 18.0539 69.1363 18.419 68.4061 18.419C67.6283 18.419 67.1838 17.9428 67.1838 17.4348H65.4535C65.4852 19.0222 66.9616 19.9112 68.4379 19.9112ZM74.0907 10.8152C74.7574 10.8152 75.2813 10.3231 75.2813 9.68815C75.2813 9.03731 74.7574 8.56108 74.0907 8.56108C73.4399 8.56108 72.8843 9.03731 72.8843 9.68815C72.8843 10.3231 73.4399 10.8152 74.0907 10.8152ZM75.0114 19.7207V12.3074H73.17V19.7207H75.0114ZM82.8677 13.3392C82.3756 12.5614 81.3914 12.1169 80.3754 12.1169C78.28 12.1169 76.7561 13.7678 76.7561 16.0061C76.7561 18.3079 78.3435 19.9112 80.3278 19.9112C81.3914 19.9112 82.3756 19.3715 82.8677 18.5619V19.7207H84.7091V12.3074H82.8677V13.3392ZM80.7088 18.1968C79.5024 18.1968 78.5975 17.1967 78.5975 16.0061C78.5975 14.8155 79.5024 13.8313 80.6929 13.8313C81.7883 13.8313 82.836 14.7362 82.836 16.0061C82.836 17.2443 81.8518 18.1968 80.7088 18.1968Z" fill="#F5E2E2"/>
<rect x="0.661429" y="0.661429" width="98.5529" height="27.1186" rx="13.5593" stroke="#FCEEF1" stroke-width="1.32286"/>
</svg>
