<svg width="139" height="43" viewBox="0 0 139 43" fill="none" xmlns="http://www.w3.org/2000/svg">
<rect x="1" y="1" width="137" height="41" rx="20.5" fill="#171C8F"/>
<path d="M21.3589 13.464V16.08H26.0869V30H29.0149V16.08H33.7429V13.464H21.3589ZM41.9942 18.504C40.8662 18.504 39.0662 19.128 38.5142 20.496V12.696H35.7302V30H38.5142V24.072C38.5142 21.888 40.0982 21.144 41.3702 21.144C42.6182 21.144 43.6982 22.104 43.6982 23.904V30H46.4822V23.712C46.4822 20.448 44.8742 18.504 41.9942 18.504ZM58.2201 20.352C57.4761 19.176 55.9881 18.504 54.4521 18.504C51.2841 18.504 48.9801 21 48.9801 24.384C48.9801 27.864 51.3801 30.288 54.3801 30.288C55.9881 30.288 57.4761 29.472 58.2201 28.248V30H61.0041V18.792H58.2201V20.352ZM54.9561 27.696C53.1321 27.696 51.7641 26.184 51.7641 24.384C51.7641 22.584 53.1321 21.096 54.9321 21.096C56.5881 21.096 58.1721 22.464 58.1721 24.384C58.1721 26.256 56.6841 27.696 54.9561 27.696ZM65.716 16.536C66.724 16.536 67.516 15.792 67.516 14.832C67.516 13.848 66.724 13.128 65.716 13.128C64.732 13.128 63.892 13.848 63.892 14.832C63.892 15.792 64.732 16.536 65.716 16.536ZM67.108 30V18.792H64.324V30H67.108ZM73.2017 30V12.696H70.4177V30H73.2017ZM85.0795 20.352C84.3355 19.176 82.8475 18.504 81.3115 18.504C78.1435 18.504 75.8395 21 75.8395 24.384C75.8395 27.864 78.2395 30.288 81.2395 30.288C82.8475 30.288 84.3355 29.472 85.0795 28.248V30H87.8635V18.792H85.0795V20.352ZM81.8155 27.696C79.9915 27.696 78.6235 26.184 78.6235 24.384C78.6235 22.584 79.9915 21.096 81.7915 21.096C83.4475 21.096 85.0315 22.464 85.0315 24.384C85.0315 26.256 83.5435 27.696 81.8155 27.696ZM97.4473 18.504C96.2953 18.504 94.5433 19.152 93.9673 20.568V18.792H91.1833V30H93.9673V24.048C93.9673 21.888 95.5513 21.144 96.8233 21.144C98.0713 21.144 99.1513 22.104 99.1513 23.904V30H101.935V23.712C101.935 20.448 100.327 18.504 97.4473 18.504ZM113.673 20.256C112.905 19.08 111.345 18.504 109.929 18.504C106.977 18.504 104.433 20.784 104.433 24.384C104.433 27.96 107.001 30.288 109.953 30.288C111.321 30.288 112.905 29.688 113.673 28.512V30H116.457V12.696H113.673V20.256ZM110.385 27.696C108.657 27.696 107.241 26.232 107.241 24.36C107.241 22.488 108.657 21.096 110.385 21.096C111.993 21.096 113.625 22.392 113.625 24.36C113.625 26.328 112.089 27.696 110.385 27.696Z" fill="#F5E2E2"/>
<rect x="1" y="1" width="137" height="41" rx="20.5" stroke="#FCEEF1" stroke-width="2"/>
</svg>
