<svg width="92" height="30" viewBox="0 0 92 30" fill="none" xmlns="http://www.w3.org/2000/svg">
<rect x="0.661429" y="1.59112" width="90.6157" height="27.1186" rx="13.5593" fill="#171C8F"/>
<path d="M25.0959 9.71301H23.4132L19.8732 17.2374L16.3174 9.71301H14.6347L13.3013 20.6504H15.2379L16.1269 13.3165L19.0954 19.4122H20.6669L23.6196 13.3006L24.4926 20.6504H26.4293L25.0959 9.71301ZM33.8882 14.2689C33.3961 13.4911 32.4119 13.0466 31.396 13.0466C29.3006 13.0466 27.7766 14.6975 27.7766 16.9358C27.7766 19.2376 29.3641 20.8409 31.3483 20.8409C32.4119 20.8409 33.3961 20.3012 33.8882 19.4916V20.6504H35.7297V13.2371H33.8882V14.2689ZM31.7293 19.1265C30.5229 19.1265 29.6181 18.1264 29.6181 16.9358C29.6181 15.7452 30.5229 14.761 31.7135 14.761C32.8088 14.761 33.8565 15.6659 33.8565 16.9358C33.8565 18.174 32.8723 19.1265 31.7293 19.1265ZM39.7669 20.6504V9.20503H37.9255V20.6504H39.7669ZM47.6232 14.2689C47.1311 13.4911 46.1469 13.0466 45.1309 13.0466C43.0355 13.0466 41.5116 14.6975 41.5116 16.9358C41.5116 19.2376 43.099 20.8409 45.0833 20.8409C46.1469 20.8409 47.1311 20.3012 47.6232 19.4916V20.6504H49.4646V13.2371H47.6232V14.2689ZM45.4643 19.1265C44.2579 19.1265 43.353 18.1264 43.353 16.9358C43.353 15.7452 44.2579 14.761 45.4484 14.761C46.5438 14.761 47.5915 15.6659 47.5915 16.9358C47.5915 18.174 46.6073 19.1265 45.4643 19.1265ZM54.6449 17.9359L52.7241 13.2371H50.708L53.6606 20.1265L51.9938 24.2697H53.9305L58.5341 13.2371H56.5498L54.6449 17.9359ZM62.074 20.8409C63.5821 20.8409 65.0901 20.0154 65.0901 18.5074C65.0901 17.8248 64.7885 16.7771 63.1217 16.3485L61.9311 16.031C61.5025 15.9357 61.1374 15.7135 61.1374 15.3325C61.1374 14.8722 61.5343 14.5388 62.1058 14.5388C62.6296 14.5388 63.09 14.8563 63.09 15.3643H64.852C64.8679 13.7133 63.3757 13.0466 62.0581 13.0466C60.439 13.0466 59.296 14.0943 59.296 15.2531C59.296 16.1897 59.7246 17.0787 61.3914 17.5232L62.3756 17.7771C62.9312 17.9041 63.2487 18.0946 63.2487 18.5074C63.2487 18.9836 62.7725 19.3487 62.0423 19.3487C61.2644 19.3487 60.8199 18.8725 60.8199 18.3645H59.0897C59.1214 19.9519 60.5977 20.8409 62.074 20.8409ZM67.7269 11.7449C68.3936 11.7449 68.9174 11.2528 68.9174 10.6178C68.9174 9.967 68.3936 9.49077 67.7269 9.49077C67.076 9.49077 66.5204 9.967 66.5204 10.6178C66.5204 11.2528 67.076 11.7449 67.7269 11.7449ZM68.6476 20.6504V13.2371H66.8062V20.6504H68.6476ZM76.5039 14.2689C76.0118 13.4911 75.0276 13.0466 74.0116 13.0466C71.9162 13.0466 70.3923 14.6975 70.3923 16.9358C70.3923 19.2376 71.9797 20.8409 73.964 20.8409C75.0276 20.8409 76.0118 20.3012 76.5039 19.4916V20.6504H78.3453V13.2371H76.5039V14.2689ZM74.345 19.1265C73.1385 19.1265 72.2337 18.1264 72.2337 16.9358C72.2337 15.7452 73.1385 14.761 74.3291 14.761C75.4244 14.761 76.4721 15.6659 76.4721 16.9358C76.4721 18.174 75.4879 19.1265 74.345 19.1265Z" fill="#F5E2E2"/>
<rect x="0.661429" y="1.59112" width="90.6157" height="27.1186" rx="13.5593" stroke="#FCEEF1" stroke-width="1.32286"/>
</svg>
