<svg width="92" height="30" viewBox="0 0 92 30" fill="none" xmlns="http://www.w3.org/2000/svg">
<rect x="0.661429" y="1.59112" width="90.6157" height="27.1186" rx="13.5593" fill="#171C8F"/>
<path d="M14.1269 9.71301V11.4433H17.2541V20.6504H19.1908V11.4433H22.318V9.71301H14.1269ZM27.7756 13.0466C27.0295 13.0466 25.839 13.4593 25.4739 14.3642V9.20503H23.6325V20.6504H25.4739V16.7294C25.4739 15.2849 26.5216 14.7928 27.3629 14.7928C28.1884 14.7928 28.9027 15.4278 28.9027 16.6183V20.6504H30.7441V16.4913C30.7441 14.3324 29.6806 13.0466 27.7756 13.0466ZM38.5079 14.2689C38.0158 13.4911 37.0316 13.0466 36.0156 13.0466C33.9202 13.0466 32.3963 14.6975 32.3963 16.9358C32.3963 19.2376 33.9837 20.8409 35.968 20.8409C37.0316 20.8409 38.0158 20.3012 38.5079 19.4916V20.6504H40.3493V13.2371H38.5079V14.2689ZM36.349 19.1265C35.1425 19.1265 34.2377 18.1264 34.2377 16.9358C34.2377 15.7452 35.1425 14.761 36.3331 14.761C37.4284 14.761 38.4761 15.6659 38.4761 16.9358C38.4761 18.174 37.4919 19.1265 36.349 19.1265ZM43.4659 11.7449C44.1326 11.7449 44.6565 11.2528 44.6565 10.6178C44.6565 9.967 44.1326 9.49077 43.4659 9.49077C42.815 9.49077 42.2594 9.967 42.2594 10.6178C42.2594 11.2528 42.815 11.7449 43.4659 11.7449ZM44.3866 20.6504V13.2371H42.5452V20.6504H44.3866ZM48.4172 20.6504V9.20503H46.5758V20.6504H48.4172ZM56.2735 14.2689C55.7814 13.4911 54.7971 13.0466 53.7812 13.0466C51.6858 13.0466 50.1619 14.6975 50.1619 16.9358C50.1619 19.2376 51.7493 20.8409 53.7336 20.8409C54.7971 20.8409 55.7814 20.3012 56.2735 19.4916V20.6504H58.1149V13.2371H56.2735V14.2689ZM54.1146 19.1265C52.9081 19.1265 52.0033 18.1264 52.0033 16.9358C52.0033 15.7452 52.9081 14.761 54.0987 14.761C55.194 14.761 56.2417 15.6659 56.2417 16.9358C56.2417 18.174 55.2575 19.1265 54.1146 19.1265ZM64.4539 13.0466C63.692 13.0466 62.5331 13.4752 62.1521 14.4118V13.2371H60.3107V20.6504H62.1521V16.7136C62.1521 15.2849 63.1999 14.7928 64.0412 14.7928C64.8667 14.7928 65.581 15.4278 65.581 16.6183V20.6504H67.4224V16.4913C67.4224 14.3324 66.3588 13.0466 64.4539 13.0466ZM75.1862 14.2054C74.6782 13.4276 73.6464 13.0466 72.7098 13.0466C70.7573 13.0466 69.0746 14.5547 69.0746 16.9358C69.0746 19.3011 70.7731 20.8409 72.7257 20.8409C73.6305 20.8409 74.6782 20.444 75.1862 19.6662V20.6504H77.0276V9.20503H75.1862V14.2054ZM73.0114 19.1265C71.8685 19.1265 70.9319 18.1581 70.9319 16.9199C70.9319 15.6817 71.8685 14.761 73.0114 14.761C74.075 14.761 75.1544 15.6182 75.1544 16.9199C75.1544 18.2216 74.1385 19.1265 73.0114 19.1265Z" fill="#F5E2E2"/>
<rect x="0.661429" y="1.59112" width="90.6157" height="27.1186" rx="13.5593" stroke="#FCEEF1" stroke-width="1.32286"/>
</svg>
