<svg width="104" height="43" viewBox="0 0 104 43" fill="none" xmlns="http://www.w3.org/2000/svg">
<rect x="1" y="1" width="102" height="41" rx="20.5" fill="#171C8F"/>
<path d="M21.9559 33.14C25.8199 33.14 27.2359 30.596 27.2359 27.644V10.964H24.3079V27.644C24.3079 29.108 23.6599 30.332 21.9559 30.332C21.7879 30.332 20.6359 30.284 20.1079 30.116L19.8199 32.78C20.5639 32.996 21.4999 33.14 21.9559 33.14ZM39.2826 17.852C38.5386 16.676 37.0506 16.004 35.5146 16.004C32.3466 16.004 30.0426 18.5 30.0426 21.884C30.0426 25.364 32.4426 27.788 35.4426 27.788C37.0506 27.788 38.5386 26.972 39.2826 25.748V27.5H42.0666V16.292H39.2826V17.852ZM36.0186 25.196C34.1946 25.196 32.8266 23.684 32.8266 21.884C32.8266 20.084 34.1946 18.596 35.9946 18.596C37.6506 18.596 39.2346 19.964 39.2346 21.884C39.2346 23.756 37.7466 25.196 36.0186 25.196ZM51.8905 16.004C50.5465 16.004 48.9385 16.58 48.1705 17.78V16.292H45.3865V32.972H48.1705V26.012C48.9385 27.212 50.4985 27.788 51.9145 27.788C54.8665 27.788 57.4105 25.484 57.4105 21.908C57.4105 18.308 54.8425 16.004 51.8905 16.004ZM51.4585 25.196C49.8505 25.196 48.2185 23.9 48.2185 21.908C48.2185 19.94 49.7545 18.596 51.4585 18.596C53.1865 18.596 54.6265 20.06 54.6265 21.908C54.6265 23.78 53.1865 25.196 51.4585 25.196ZM68.6263 17.852C67.8823 16.676 66.3943 16.004 64.8583 16.004C61.6903 16.004 59.3863 18.5 59.3863 21.884C59.3863 25.364 61.7863 27.788 64.7863 27.788C66.3943 27.788 67.8823 26.972 68.6263 25.748V27.5H71.4103V16.292H68.6263V17.852ZM65.3623 25.196C63.5383 25.196 62.1703 23.684 62.1703 21.884C62.1703 20.084 63.5383 18.596 65.3383 18.596C66.9943 18.596 68.5783 19.964 68.5783 21.884C68.5783 23.756 67.0903 25.196 65.3623 25.196ZM80.9942 16.004C79.8422 16.004 78.0902 16.652 77.5142 18.068V16.292H74.7302V27.5H77.5142V21.548C77.5142 19.388 79.0982 18.644 80.3702 18.644C81.6182 18.644 82.6982 19.604 82.6982 21.404V27.5H85.4822V21.212C85.4822 17.948 83.8742 16.004 80.9942 16.004Z" fill="#F5E2E2"/>
<rect x="1" y="1" width="102" height="41" rx="20.5" stroke="#FCEEF1" stroke-width="2"/>
</svg>
