<svg width="63" height="30" viewBox="0 0 63 30" fill="none" xmlns="http://www.w3.org/2000/svg">
<rect x="0.661429" y="1.59112" width="61.5129" height="27.1186" rx="13.5593" fill="#171C8F"/>
<path d="M16.1256 20.6504V9.71301H14.189V20.6504H16.1256ZM22.6347 13.0466C21.8727 13.0466 20.7139 13.4752 20.3329 14.4118V13.2371H18.4915V20.6504H20.3329V16.7136C20.3329 15.2849 21.3806 14.7928 22.222 14.7928C23.0474 14.7928 23.7618 15.4278 23.7618 16.6183V20.6504H25.6032V16.4913C25.6032 14.3324 24.5396 13.0466 22.6347 13.0466ZM33.367 14.2054C32.859 13.4276 31.8272 13.0466 30.8906 13.0466C28.938 13.0466 27.2554 14.5547 27.2554 16.9358C27.2554 19.3011 28.9539 20.8409 30.9065 20.8409C31.8113 20.8409 32.859 20.444 33.367 19.6662V20.6504H35.2084V9.20503H33.367V14.2054ZM31.1922 19.1265C30.0492 19.1265 29.1127 18.1581 29.1127 16.9199C29.1127 15.6817 30.0492 14.761 31.1922 14.761C32.2558 14.761 33.3352 15.6182 33.3352 16.9199C33.3352 18.2216 32.3193 19.1265 31.1922 19.1265ZM38.325 11.7449C38.9917 11.7449 39.5155 11.2528 39.5155 10.6178C39.5155 9.967 38.9917 9.49077 38.325 9.49077C37.6741 9.49077 37.1185 9.967 37.1185 10.6178C37.1185 11.2528 37.6741 11.7449 38.325 11.7449ZM39.2457 20.6504V13.2371H37.4042V20.6504H39.2457ZM47.1019 14.2689C46.6098 13.4911 45.6256 13.0466 44.6097 13.0466C42.5143 13.0466 40.9903 14.6975 40.9903 16.9358C40.9903 19.2376 42.5778 20.8409 44.5621 20.8409C45.6256 20.8409 46.6098 20.3012 47.1019 19.4916V20.6504H48.9434V13.2371H47.1019V14.2689ZM44.943 19.1265C43.7366 19.1265 42.8318 18.1264 42.8318 16.9358C42.8318 15.7452 43.7366 14.761 44.9272 14.761C46.0225 14.761 47.0702 15.6659 47.0702 16.9358C47.0702 18.174 46.086 19.1265 44.943 19.1265Z" fill="#F5E2E2"/>
<rect x="0.661429" y="1.59112" width="61.5129" height="27.1186" rx="13.5593" stroke="#FCEEF1" stroke-width="1.32286"/>
</svg>
