<svg width="93" height="30" viewBox="0 0 93 30" fill="none" xmlns="http://www.w3.org/2000/svg">
<rect x="0.973929" y="1.59112" width="90.6157" height="27.1186" rx="13.5593" fill="#171C8F"/>
<path d="M13.0841 20.8409C15.2271 20.8409 16.8939 19.5074 16.8939 17.5073C16.8939 15.7611 15.5764 14.8722 13.8619 14.3959L12.5602 14.0149C11.3062 13.6816 11.2109 13.0466 11.2109 12.745C11.2109 11.8878 11.9888 11.2528 12.9253 11.2528C13.9413 11.2528 14.6239 11.9037 14.6239 12.8085H16.5447C16.5447 10.7607 14.9731 9.52252 12.973 9.52252C10.9569 9.52252 9.25839 10.8401 9.25839 12.7767C9.25839 13.7292 9.67112 15.142 12.0205 15.7452L13.3857 16.1262C14.3064 16.3802 14.9573 16.8247 14.9573 17.5867C14.9573 18.4439 14.2429 19.1265 13.1317 19.1265C11.9253 19.1265 11.1157 18.3486 11.0998 17.4914H9.17902C9.17902 19.3487 10.7506 20.8409 13.0841 20.8409ZM19.5639 11.7449C20.2306 11.7449 20.7545 11.2528 20.7545 10.6178C20.7545 9.967 20.2306 9.49077 19.5639 9.49077C18.9131 9.49077 18.3575 9.967 18.3575 10.6178C18.3575 11.2528 18.9131 11.7449 19.5639 11.7449ZM20.4846 20.6504V13.2371H18.6432V20.6504H20.4846ZM26.817 13.0466C26.055 13.0466 24.8962 13.4752 24.5152 14.4118V13.2371H22.6738V20.6504H24.5152V16.7136C24.5152 15.2849 25.5629 14.7928 26.4042 14.7928C27.2297 14.7928 27.944 15.4278 27.944 16.6183V20.6504H29.7855V16.4913C29.7855 14.3324 28.7219 13.0466 26.817 13.0466ZM37.5492 14.2054C37.0254 13.4435 36.0253 13.0466 35.0728 13.0466C33.1203 13.0466 31.4376 14.5547 31.4376 16.9358C31.4376 19.3011 33.1362 20.8409 35.0887 20.8409C35.9935 20.8409 37.0254 20.444 37.5492 19.6821V19.8567C37.5492 21.9838 36.6603 22.7934 35.2316 22.7934C34.422 22.7934 33.6124 22.3172 33.2473 21.6028L31.7234 22.3013C32.3742 23.6348 33.7076 24.4602 35.2316 24.4602C37.7715 24.4602 39.3906 23.0157 39.3906 19.6821V13.2371H37.5492V14.2054ZM35.3744 19.1265C34.2315 19.1265 33.2949 18.1581 33.2949 16.9199C33.2949 15.6817 34.2315 14.761 35.3744 14.761C36.438 14.761 37.5175 15.6182 37.5175 16.9199C37.5175 18.2216 36.5015 19.1265 35.3744 19.1265ZM47.2536 14.2689C46.7615 13.4911 45.7773 13.0466 44.7614 13.0466C42.6659 13.0466 41.142 14.6975 41.142 16.9358C41.142 19.2376 42.7294 20.8409 44.7137 20.8409C45.7773 20.8409 46.7615 20.3012 47.2536 19.4916V20.6504H49.095V13.2371H47.2536V14.2689ZM45.0947 19.1265C43.8883 19.1265 42.9834 18.1264 42.9834 16.9358C42.9834 15.7452 43.8883 14.761 45.0788 14.761C46.1742 14.761 47.2219 15.6659 47.2219 16.9358C47.2219 18.174 46.2377 19.1265 45.0947 19.1265ZM55.5928 13.0466C54.7039 13.0466 53.6403 13.4276 53.1323 14.2213V13.2371H51.2909V24.2697H53.1323V19.6662C53.6403 20.4599 54.6721 20.8409 55.6087 20.8409C57.5612 20.8409 59.2439 19.317 59.2439 16.9517C59.2439 14.5705 57.5454 13.0466 55.5928 13.0466ZM55.3071 19.1265C54.2435 19.1265 53.1641 18.2692 53.1641 16.9517C53.1641 15.65 54.18 14.761 55.3071 14.761C56.45 14.761 57.4025 15.7294 57.4025 16.9517C57.4025 18.1899 56.45 19.1265 55.3071 19.1265ZM64.4718 20.8409C66.583 20.8409 68.4245 19.2852 68.4245 16.9358C68.4245 14.5864 66.583 13.0466 64.4718 13.0466C62.3605 13.0466 60.5349 14.5864 60.5349 16.9358C60.5349 19.2852 62.3605 20.8409 64.4718 20.8409ZM64.4718 19.1265C63.3288 19.1265 62.3922 18.2375 62.3922 16.9358C62.3922 15.6659 63.3288 14.761 64.4718 14.761C65.6147 14.761 66.5672 15.6659 66.5672 16.9358C66.5672 18.2375 65.6147 19.1265 64.4718 19.1265ZM74.1257 13.0466C73.205 13.0466 72.3954 13.5863 71.9985 14.8245V13.2371H70.1571V20.6504H72.0144V18.0629C72.0144 15.9834 72.6811 14.7769 73.8876 14.7769C74.1574 14.7769 74.5384 14.8245 74.967 15.0468L75.3321 13.3006C75.0464 13.1419 74.5702 13.0466 74.1257 13.0466ZM83.5498 16.8723C83.5498 14.5547 81.883 13.0466 79.7717 13.0466C77.6446 13.0466 75.8825 14.5705 75.8825 16.9358C75.8825 19.2535 77.5652 20.8409 79.7717 20.8409C81.121 20.8409 82.4386 20.2377 83.1212 19.1582L81.883 18.2216C81.4544 18.8248 80.6766 19.1741 79.8828 19.1741C78.7716 19.1741 77.9779 18.6185 77.7716 17.5867H83.5181C83.5339 17.3168 83.5498 17.0787 83.5498 16.8723ZM77.7716 16.3008C77.9938 15.1738 78.8034 14.6817 79.7876 14.6817C80.8194 14.6817 81.6131 15.2849 81.7243 16.3008H77.7716Z" fill="#F5E2E2"/>
<rect x="0.973929" y="1.59112" width="90.6157" height="27.1186" rx="13.5593" stroke="#FCEEF1" stroke-width="1.32286"/>
</svg>
