<svg width="140" height="43" viewBox="0 0 140 43" fill="none" xmlns="http://www.w3.org/2000/svg">
<rect x="1.54688" y="1" width="137" height="41" rx="20.5" fill="#171C8F"/>
<path d="M19.8568 30.288C23.0968 30.288 25.6168 28.272 25.6168 25.248C25.6168 22.608 23.6248 21.264 21.0328 20.544L19.0648 19.968C17.1688 19.464 17.0248 18.504 17.0248 18.048C17.0248 16.752 18.2008 15.792 19.6168 15.792C21.1528 15.792 22.1848 16.776 22.1848 18.144H25.0888C25.0888 15.048 22.7128 13.176 19.6888 13.176C16.6408 13.176 14.0728 15.168 14.0728 18.096C14.0728 19.536 14.6968 21.672 18.2488 22.584L20.3128 23.16C21.7048 23.544 22.6888 24.216 22.6888 25.368C22.6888 26.664 21.6088 27.696 19.9288 27.696C18.1048 27.696 16.8808 26.52 16.8568 25.224H13.9528C13.9528 28.032 16.3288 30.288 19.8568 30.288ZM29.6535 16.536C30.6615 16.536 31.4535 15.792 31.4535 14.832C31.4535 13.848 30.6615 13.128 29.6535 13.128C28.6695 13.128 27.8295 13.848 27.8295 14.832C27.8295 15.792 28.6695 16.536 29.6535 16.536ZM31.0455 30V18.792H28.2615V30H31.0455ZM40.6192 18.504C39.4672 18.504 37.7152 19.152 37.1392 20.568V18.792H34.3552V30H37.1392V24.048C37.1392 21.888 38.7232 21.144 39.9952 21.144C41.2432 21.144 42.3232 22.104 42.3232 23.904V30H45.1072V23.712C45.1072 20.448 43.4992 18.504 40.6192 18.504ZM56.8451 20.256C56.0531 19.104 54.5411 18.504 53.1011 18.504C50.1491 18.504 47.6051 20.784 47.6051 24.384C47.6051 27.96 50.1731 30.288 53.1251 30.288C54.4931 30.288 56.0531 29.688 56.8451 28.536V28.8C56.8451 32.016 55.5011 33.24 53.3411 33.24C52.1171 33.24 50.8931 32.52 50.3411 31.44L48.0371 32.496C49.0211 34.512 51.0371 35.76 53.3411 35.76C57.1811 35.76 59.6291 33.576 59.6291 28.536V18.792H56.8451V20.256ZM53.5571 27.696C51.8291 27.696 50.4131 26.232 50.4131 24.36C50.4131 22.488 51.8291 21.096 53.5571 21.096C55.1651 21.096 56.7971 22.392 56.7971 24.36C56.7971 26.328 55.2611 27.696 53.5571 27.696ZM71.517 20.352C70.773 19.176 69.285 18.504 67.749 18.504C64.581 18.504 62.277 21 62.277 24.384C62.277 27.864 64.677 30.288 67.677 30.288C69.285 30.288 70.773 29.472 71.517 28.248V30H74.301V18.792H71.517V20.352ZM68.253 27.696C66.429 27.696 65.061 26.184 65.061 24.384C65.061 22.584 66.429 21.096 68.229 21.096C69.885 21.096 71.469 22.464 71.469 24.384C71.469 26.256 69.981 27.696 68.253 27.696ZM84.1248 18.504C82.7808 18.504 81.1728 19.08 80.4048 20.28V18.792H77.6208V35.472H80.4048V28.512C81.1728 29.712 82.7328 30.288 84.1488 30.288C87.1008 30.288 89.6448 27.984 89.6448 24.408C89.6448 20.808 87.0768 18.504 84.1248 18.504ZM83.6928 27.696C82.0848 27.696 80.4528 26.4 80.4528 24.408C80.4528 22.44 81.9888 21.096 83.6928 21.096C85.4208 21.096 86.8608 22.56 86.8608 24.408C86.8608 26.28 85.4208 27.696 83.6928 27.696ZM97.5487 30.288C100.741 30.288 103.525 27.936 103.525 24.384C103.525 20.832 100.741 18.504 97.5487 18.504C94.3567 18.504 91.5967 20.832 91.5967 24.384C91.5967 27.936 94.3567 30.288 97.5487 30.288ZM97.5487 27.696C95.8207 27.696 94.4047 26.352 94.4047 24.384C94.4047 22.464 95.8207 21.096 97.5487 21.096C99.2767 21.096 100.717 22.464 100.717 24.384C100.717 26.352 99.2767 27.696 97.5487 27.696ZM112.144 18.504C110.752 18.504 109.528 19.32 108.928 21.192V18.792H106.144V30H108.952V26.088C108.952 22.944 109.96 21.12 111.784 21.12C112.192 21.12 112.768 21.192 113.416 21.528L113.968 18.888C113.536 18.648 112.816 18.504 112.144 18.504ZM126.392 24.288C126.392 20.784 123.872 18.504 120.68 18.504C117.464 18.504 114.8 20.808 114.8 24.384C114.8 27.888 117.344 30.288 120.68 30.288C122.72 30.288 124.712 29.376 125.744 27.744L123.872 26.328C123.224 27.24 122.048 27.768 120.848 27.768C119.168 27.768 117.968 26.928 117.656 25.368H126.344C126.368 24.96 126.392 24.6 126.392 24.288ZM117.656 23.424C117.992 21.72 119.216 20.976 120.704 20.976C122.264 20.976 123.464 21.888 123.632 23.424H117.656Z" fill="#F5E2E2"/>
<rect x="1.54688" y="1" width="137" height="41" rx="20.5" stroke="#FCEEF1" stroke-width="2"/>
</svg>
