<svg width="139" height="43" viewBox="0 0 139 43" fill="none" xmlns="http://www.w3.org/2000/svg">
<rect x="1" y="1" width="137" height="41" rx="20.5" fill="#171C8F"/>
<path d="M37.9427 13.464H35.3987L30.0467 24.84L24.6707 13.464H22.1267L20.1107 30H23.0387L24.3827 18.912L28.8707 28.128H31.2467L35.7107 18.888L37.0307 30H39.9587L37.9427 13.464ZM51.2357 20.352C50.4917 19.176 49.0037 18.504 47.4677 18.504C44.2997 18.504 41.9957 21 41.9957 24.384C41.9957 27.864 44.3957 30.288 47.3957 30.288C49.0037 30.288 50.4917 29.472 51.2357 28.248V30H54.0197V18.792H51.2357V20.352ZM47.9717 27.696C46.1477 27.696 44.7797 26.184 44.7797 24.384C44.7797 22.584 46.1477 21.096 47.9477 21.096C49.6037 21.096 51.1877 22.464 51.1877 24.384C51.1877 26.256 49.6997 27.696 47.9717 27.696ZM60.1236 30V12.696H57.3396V30H60.1236ZM72.0013 20.352C71.2573 19.176 69.7693 18.504 68.2333 18.504C65.0653 18.504 62.7613 21 62.7613 24.384C62.7613 27.864 65.1613 30.288 68.1613 30.288C69.7693 30.288 71.2573 29.472 72.0013 28.248V30H74.7853V18.792H72.0013V20.352ZM68.7373 27.696C66.9133 27.696 65.5453 26.184 65.5453 24.384C65.5453 22.584 66.9133 21.096 68.7133 21.096C70.3693 21.096 71.9533 22.464 71.9533 24.384C71.9533 26.256 70.4653 27.696 68.7373 27.696ZM82.6172 25.896L79.7132 18.792H76.6652L81.1292 29.208L78.6092 35.472H81.5372L88.4972 18.792H85.4972L82.6172 25.896ZM93.8492 30.288C96.1292 30.288 98.4092 29.04 98.4092 26.76C98.4092 25.728 97.9532 24.144 95.4332 23.496L93.6332 23.016C92.9852 22.872 92.4332 22.536 92.4332 21.96C92.4332 21.264 93.0332 20.76 93.8972 20.76C94.6892 20.76 95.3852 21.24 95.3852 22.008H98.0492C98.0732 19.512 95.8172 18.504 93.8252 18.504C91.3772 18.504 89.6492 20.088 89.6492 21.84C89.6492 23.256 90.2972 24.6 92.8172 25.272L94.3052 25.656C95.1452 25.848 95.6252 26.136 95.6252 26.76C95.6252 27.48 94.9052 28.032 93.8012 28.032C92.6252 28.032 91.9532 27.312 91.9532 26.544H89.3372C89.3852 28.944 91.6172 30.288 93.8492 30.288ZM102.396 16.536C103.404 16.536 104.196 15.792 104.196 14.832C104.196 13.848 103.404 13.128 102.396 13.128C101.412 13.128 100.572 13.848 100.572 14.832C100.572 15.792 101.412 16.536 102.396 16.536ZM103.788 30V18.792H101.004V30H103.788ZM115.665 20.352C114.921 19.176 113.433 18.504 111.897 18.504C108.729 18.504 106.425 21 106.425 24.384C106.425 27.864 108.825 30.288 111.825 30.288C113.433 30.288 114.921 29.472 115.665 28.248V30H118.449V18.792H115.665V20.352ZM112.401 27.696C110.577 27.696 109.209 26.184 109.209 24.384C109.209 22.584 110.577 21.096 112.377 21.096C114.033 21.096 115.617 22.464 115.617 24.384C115.617 26.256 114.129 27.696 112.401 27.696Z" fill="#F5E2E2"/>
<rect x="1" y="1" width="137" height="41" rx="20.5" stroke="#FCEEF1" stroke-width="2"/>
</svg>
