<svg width="56" height="30" viewBox="0 0 56 30" fill="none" xmlns="http://www.w3.org/2000/svg">
<rect x="0.661429" y="1.59112" width="54.2371" height="27.1186" rx="13.5593" fill="#171C8F"/>
<path d="M18.2169 20.8409C20.4076 20.8409 22.3283 19.3487 22.3283 16.8406V9.71301H20.3917V16.7612C20.3917 18.3169 19.3598 18.9995 18.2169 18.9995C17.0581 18.9995 16.0262 18.3169 16.0262 16.7612V9.71301H14.0896V16.8406C14.0896 19.3487 16.0104 20.8409 18.2169 20.8409ZM33.7245 20.6504L29.6289 9.71301H27.5335L23.4221 20.6504H25.4857L26.4223 17.9676H30.7242L31.6767 20.6504H33.7245ZM28.5812 11.8402L30.1369 16.285H27.0096L28.5812 11.8402ZM36.9879 16.158H41.1787V14.3959H36.9879V11.4433H41.7819V9.71301H35.0671V20.6504H41.9406V18.9201H36.9879V16.158Z" fill="#F5E2E2"/>
<rect x="0.661429" y="1.59112" width="54.2371" height="27.1186" rx="13.5593" stroke="#FCEEF1" stroke-width="1.32286"/>
</svg>
